ISO-10303-21;
HEADER;
/* Generated by software containing ST-Developer
 * from STEP Tools, Inc. (www.steptools.com) 
 */

FILE_DESCRIPTION(
/* description */ (''),
/* implementation_level */ '2;1');

FILE_NAME(
/* name */ 'Halterung Breadboard.step',
/* time_stamp */ '2026-09-10T18:34:50+02:00',
/* author */ (''),
/* organization */ (''),
/* preprocessor_version */ 'ST-DEVELOPER v20.1',
/* originating_system */ 'Autodesk Translation Framework v15.8.0.0',
/* authorisation */ '');

FILE_SCHEMA (('AUTOMOTIVE_DESIGN { 1 0 10303 214 3 1 1 }'));
ENDSEC;

DATA;
#10=MECHANICAL_DESIGN_GEOMETRIC_PRESENTATION_REPRESENTATION('',(#70,#71,
#72,#73),#2013);
#11=ITEM_DEFINED_TRANSFORMATION($,$,#1249,#1335);
#12=ITEM_DEFINED_TRANSFORMATION($,$,#1256,#1336);
#13=ITEM_DEFINED_TRANSFORMATION($,$,#1275,#1337);
#14=ITEM_DEFINED_TRANSFORMATION($,$,#1321,#1338);
#15=(
REPRESENTATION_RELATIONSHIP($,$,#2033,#2032)
REPRESENTATION_RELATIONSHIP_WITH_TRANSFORMATION(#11)
SHAPE_REPRESENTATION_RELATIONSHIP()
);
#16=(
REPRESENTATION_RELATIONSHIP($,$,#2034,#2032)
REPRESENTATION_RELATIONSHIP_WITH_TRANSFORMATION(#12)
SHAPE_REPRESENTATION_RELATIONSHIP()
);
#17=(
REPRESENTATION_RELATIONSHIP($,$,#2035,#2032)
REPRESENTATION_RELATIONSHIP_WITH_TRANSFORMATION(#13)
SHAPE_REPRESENTATION_RELATIONSHIP()
);
#18=(
REPRESENTATION_RELATIONSHIP($,$,#2036,#2032)
REPRESENTATION_RELATIONSHIP_WITH_TRANSFORMATION(#14)
SHAPE_REPRESENTATION_RELATIONSHIP()
);
#19=CONTEXT_DEPENDENT_SHAPE_REPRESENTATION(#15,#2028);
#20=CONTEXT_DEPENDENT_SHAPE_REPRESENTATION(#16,#2029);
#21=CONTEXT_DEPENDENT_SHAPE_REPRESENTATION(#17,#2030);
#22=CONTEXT_DEPENDENT_SHAPE_REPRESENTATION(#18,#2031);
#23=NEXT_ASSEMBLY_USAGE_OCCURRENCE('Breadborad:1','Breadborad:1',
'Breadborad:1',#2038,#2039,'Breadborad:1');
#24=NEXT_ASSEMBLY_USAGE_OCCURRENCE('Auto Befestigungspunkt:1',
'Auto Befestigungspunkt:1','Auto Befestigungspunkt:1',#2038,#2040,
'Auto Befestigungspunkt:1');
#25=NEXT_ASSEMBLY_USAGE_OCCURRENCE('Breadboard_Halterung:1',
'Breadboard_Halterung:1','Breadboard_Halterung:1',#2038,#2041,
'Breadboard_Halterung:1');
#26=NEXT_ASSEMBLY_USAGE_OCCURRENCE('Halterung Konterplatte:1',
'Halterung Konterplatte:1','Halterung Konterplatte:1',#2038,#2042,
'Halterung Konterplatte:1');
#27=FACE_BOUND('',#159,.T.);
#28=FACE_BOUND('',#161,.T.);
#29=FACE_BOUND('',#167,.T.);
#30=FACE_BOUND('',#191,.T.);
#31=FACE_BOUND('',#200,.T.);
#32=FACE_BOUND('',#205,.T.);
#33=CIRCLE('',#1262,1.5);
#34=CIRCLE('',#1263,1.5);
#35=CIRCLE('',#1267,1.5);
#36=CIRCLE('',#1268,1.5);
#37=CIRCLE('',#1277,8.);
#38=CIRCLE('',#1278,8.);
#39=CIRCLE('',#1280,4.5);
#40=CIRCLE('',#1281,4.5);
#41=CIRCLE('',#1282,4.5);
#42=CIRCLE('',#1283,4.5);
#43=CIRCLE('',#1285,8.);
#44=CIRCLE('',#1287,8.);
#45=CIRCLE('',#1289,2.25000000000001);
#46=CIRCLE('',#1291,5.);
#47=CIRCLE('',#1292,5.00000000000001);
#48=CIRCLE('',#1294,2.25000000000001);
#49=CIRCLE('',#1314,5.00000000000001);
#50=CIRCLE('',#1319,5.);
#51=CIRCLE('',#1323,2.65);
#52=CIRCLE('',#1324,2.65);
#53=CYLINDRICAL_SURFACE('',#1261,1.5);
#54=CYLINDRICAL_SURFACE('',#1266,1.5);
#55=CYLINDRICAL_SURFACE('',#1276,8.);
#56=CYLINDRICAL_SURFACE('',#1279,4.5);
#57=CYLINDRICAL_SURFACE('',#1286,8.);
#58=CYLINDRICAL_SURFACE('',#1293,2.25000000000001);
#59=CYLINDRICAL_SURFACE('',#1313,5.00000000000001);
#60=CYLINDRICAL_SURFACE('',#1318,5.);
#61=CYLINDRICAL_SURFACE('',#1322,2.65);
#62=SHAPE_REPRESENTATION_RELATIONSHIP('SRR','None',#2033,#66);
#63=SHAPE_REPRESENTATION_RELATIONSHIP('SRR','None',#2034,#67);
#64=SHAPE_REPRESENTATION_RELATIONSHIP('SRR','None',#2035,#68);
#65=SHAPE_REPRESENTATION_RELATIONSHIP('SRR','None',#2036,#69);
#66=ADVANCED_BREP_SHAPE_REPRESENTATION('',(#74),#2009);
#67=ADVANCED_BREP_SHAPE_REPRESENTATION('',(#75),#2010);
#68=ADVANCED_BREP_SHAPE_REPRESENTATION('',(#76),#2011);
#69=ADVANCED_BREP_SHAPE_REPRESENTATION('',(#77),#2012);
#70=STYLED_ITEM('',(#2062),#74);
#71=STYLED_ITEM('',(#2063),#75);
#72=STYLED_ITEM('',(#2064),#76);
#73=STYLED_ITEM('',(#2064),#77);
#74=MANIFOLD_SOLID_BREP('K\X\F6rper1',#1199);
#75=MANIFOLD_SOLID_BREP('K\X\F6rper1',#1200);
#76=MANIFOLD_SOLID_BREP('K\X\F6rper1',#1201);
#77=MANIFOLD_SOLID_BREP('K\X\F6rper1',#1202);
#78=FACE_OUTER_BOUND('',#140,.T.);
#79=FACE_OUTER_BOUND('',#141,.T.);
#80=FACE_OUTER_BOUND('',#142,.T.);
#81=FACE_OUTER_BOUND('',#143,.T.);
#82=FACE_OUTER_BOUND('',#144,.T.);
#83=FACE_OUTER_BOUND('',#145,.T.);
#84=FACE_OUTER_BOUND('',#146,.T.);
#85=FACE_OUTER_BOUND('',#147,.T.);
#86=FACE_OUTER_BOUND('',#148,.T.);
#87=FACE_OUTER_BOUND('',#149,.T.);
#88=FACE_OUTER_BOUND('',#150,.T.);
#89=FACE_OUTER_BOUND('',#151,.T.);
#90=FACE_OUTER_BOUND('',#152,.T.);
#91=FACE_OUTER_BOUND('',#153,.T.);
#92=FACE_OUTER_BOUND('',#154,.T.);
#93=FACE_OUTER_BOUND('',#155,.T.);
#94=FACE_OUTER_BOUND('',#156,.T.);
#95=FACE_OUTER_BOUND('',#157,.T.);
#96=FACE_OUTER_BOUND('',#158,.T.);
#97=FACE_OUTER_BOUND('',#160,.T.);
#98=FACE_OUTER_BOUND('',#162,.T.);
#99=FACE_OUTER_BOUND('',#163,.T.);
#100=FACE_OUTER_BOUND('',#164,.T.);
#101=FACE_OUTER_BOUND('',#165,.T.);
#102=FACE_OUTER_BOUND('',#166,.T.);
#103=FACE_OUTER_BOUND('',#168,.T.);
#104=FACE_OUTER_BOUND('',#169,.T.);
#105=FACE_OUTER_BOUND('',#170,.T.);
#106=FACE_OUTER_BOUND('',#171,.T.);
#107=FACE_OUTER_BOUND('',#172,.T.);
#108=FACE_OUTER_BOUND('',#173,.T.);
#109=FACE_OUTER_BOUND('',#174,.T.);
#110=FACE_OUTER_BOUND('',#175,.T.);
#111=FACE_OUTER_BOUND('',#176,.T.);
#112=FACE_OUTER_BOUND('',#177,.T.);
#113=FACE_OUTER_BOUND('',#178,.T.);
#114=FACE_OUTER_BOUND('',#179,.T.);
#115=FACE_OUTER_BOUND('',#180,.T.);
#116=FACE_OUTER_BOUND('',#181,.T.);
#117=FACE_OUTER_BOUND('',#182,.T.);
#118=FACE_OUTER_BOUND('',#183,.T.);
#119=FACE_OUTER_BOUND('',#184,.T.);
#120=FACE_OUTER_BOUND('',#185,.T.);
#121=FACE_OUTER_BOUND('',#186,.T.);
#122=FACE_OUTER_BOUND('',#187,.T.);
#123=FACE_OUTER_BOUND('',#188,.T.);
#124=FACE_OUTER_BOUND('',#189,.T.);
#125=FACE_OUTER_BOUND('',#190,.T.);
#126=FACE_OUTER_BOUND('',#192,.T.);
#127=FACE_OUTER_BOUND('',#193,.T.);
#128=FACE_OUTER_BOUND('',#194,.T.);
#129=FACE_OUTER_BOUND('',#195,.T.);
#130=FACE_OUTER_BOUND('',#196,.T.);
#131=FACE_OUTER_BOUND('',#197,.T.);
#132=FACE_OUTER_BOUND('',#198,.T.);
#133=FACE_OUTER_BOUND('',#199,.T.);
#134=FACE_OUTER_BOUND('',#201,.T.);
#135=FACE_OUTER_BOUND('',#202,.T.);
#136=FACE_OUTER_BOUND('',#203,.T.);
#137=FACE_OUTER_BOUND('',#204,.T.);
#138=FACE_OUTER_BOUND('',#206,.T.);
#139=FACE_OUTER_BOUND('',#207,.T.);
#140=EDGE_LOOP('',(#760,#761,#762,#763));
#141=EDGE_LOOP('',(#764,#765,#766,#767));
#142=EDGE_LOOP('',(#768,#769,#770,#771));
#143=EDGE_LOOP('',(#772,#773,#774,#775));
#144=EDGE_LOOP('',(#776,#777,#778,#779));
#145=EDGE_LOOP('',(#780,#781,#782,#783));
#146=EDGE_LOOP('',(#784,#785,#786,#787));
#147=EDGE_LOOP('',(#788,#789,#790,#791));
#148=EDGE_LOOP('',(#792,#793,#794,#795));
#149=EDGE_LOOP('',(#796,#797,#798,#799));
#150=EDGE_LOOP('',(#800,#801,#802,#803));
#151=EDGE_LOOP('',(#804,#805,#806,#807));
#152=EDGE_LOOP('',(#808,#809,#810,#811));
#153=EDGE_LOOP('',(#812,#813,#814,#815));
#154=EDGE_LOOP('',(#816,#817,#818,#819));
#155=EDGE_LOOP('',(#820,#821,#822,#823));
#156=EDGE_LOOP('',(#824,#825,#826,#827));
#157=EDGE_LOOP('',(#828,#829,#830,#831));
#158=EDGE_LOOP('',(#832,#833,#834,#835));
#159=EDGE_LOOP('',(#836,#837,#838,#839,#840,#841,#842,#843));
#160=EDGE_LOOP('',(#844,#845,#846,#847));
#161=EDGE_LOOP('',(#848,#849,#850,#851,#852,#853,#854,#855));
#162=EDGE_LOOP('',(#856,#857,#858,#859));
#163=EDGE_LOOP('',(#860,#861,#862,#863,#864,#865));
#164=EDGE_LOOP('',(#866,#867,#868,#869,#870,#871,#872,#873));
#165=EDGE_LOOP('',(#874,#875,#876,#877));
#166=EDGE_LOOP('',(#878,#879,#880,#881,#882,#883));
#167=EDGE_LOOP('',(#884));
#168=EDGE_LOOP('',(#885,#886,#887,#888,#889,#890,#891,#892,#893,#894,#895,
#896,#897,#898,#899,#900,#901,#902));
#169=EDGE_LOOP('',(#903,#904,#905,#906));
#170=EDGE_LOOP('',(#907,#908,#909,#910));
#171=EDGE_LOOP('',(#911,#912,#913,#914));
#172=EDGE_LOOP('',(#915,#916,#917,#918));
#173=EDGE_LOOP('',(#919,#920,#921,#922));
#174=EDGE_LOOP('',(#923,#924,#925,#926,#927,#928,#929,#930));
#175=EDGE_LOOP('',(#931,#932,#933,#934));
#176=EDGE_LOOP('',(#935,#936,#937,#938));
#177=EDGE_LOOP('',(#939,#940,#941,#942));
#178=EDGE_LOOP('',(#943,#944,#945,#946));
#179=EDGE_LOOP('',(#947,#948,#949,#950));
#180=EDGE_LOOP('',(#951,#952,#953,#954));
#181=EDGE_LOOP('',(#955,#956,#957,#958,#959,#960,#961,#962));
#182=EDGE_LOOP('',(#963,#964,#965,#966));
#183=EDGE_LOOP('',(#967,#968,#969,#970));
#184=EDGE_LOOP('',(#971,#972,#973,#974));
#185=EDGE_LOOP('',(#975,#976,#977,#978,#979,#980,#981,#982));
#186=EDGE_LOOP('',(#983,#984,#985,#986));
#187=EDGE_LOOP('',(#987,#988,#989,#990,#991,#992));
#188=EDGE_LOOP('',(#993,#994,#995,#996));
#189=EDGE_LOOP('',(#997,#998,#999,#1000));
#190=EDGE_LOOP('',(#1001,#1002,#1003,#1004));
#191=EDGE_LOOP('',(#1005));
#192=EDGE_LOOP('',(#1006,#1007,#1008,#1009));
#193=EDGE_LOOP('',(#1010,#1011,#1012,#1013));
#194=EDGE_LOOP('',(#1014,#1015,#1016,#1017,#1018,#1019,#1020,#1021,#1022,
#1023,#1024,#1025,#1026,#1027,#1028,#1029));
#195=EDGE_LOOP('',(#1030,#1031,#1032,#1033));
#196=EDGE_LOOP('',(#1034,#1035,#1036,#1037));
#197=EDGE_LOOP('',(#1038,#1039,#1040,#1041));
#198=EDGE_LOOP('',(#1042,#1043,#1044,#1045));
#199=EDGE_LOOP('',(#1046,#1047,#1048,#1049));
#200=EDGE_LOOP('',(#1050));
#201=EDGE_LOOP('',(#1051,#1052,#1053,#1054));
#202=EDGE_LOOP('',(#1055,#1056,#1057,#1058));
#203=EDGE_LOOP('',(#1059,#1060,#1061,#1062));
#204=EDGE_LOOP('',(#1063,#1064,#1065,#1066));
#205=EDGE_LOOP('',(#1067));
#206=EDGE_LOOP('',(#1068,#1069,#1070,#1071,#1072,#1073,#1074,#1075));
#207=EDGE_LOOP('',(#1076,#1077,#1078,#1079,#1080,#1081,#1082,#1083));
#208=LINE('',#1668,#350);
#209=LINE('',#1670,#351);
#210=LINE('',#1672,#352);
#211=LINE('',#1673,#353);
#212=LINE('',#1676,#354);
#213=LINE('',#1678,#355);
#214=LINE('',#1679,#356);
#215=LINE('',#1682,#357);
#216=LINE('',#1684,#358);
#217=LINE('',#1685,#359);
#218=LINE('',#1687,#360);
#219=LINE('',#1688,#361);
#220=LINE('',#1695,#362);
#221=LINE('',#1697,#363);
#222=LINE('',#1699,#364);
#223=LINE('',#1700,#365);
#224=LINE('',#1703,#366);
#225=LINE('',#1705,#367);
#226=LINE('',#1706,#368);
#227=LINE('',#1709,#369);
#228=LINE('',#1711,#370);
#229=LINE('',#1712,#371);
#230=LINE('',#1715,#372);
#231=LINE('',#1717,#373);
#232=LINE('',#1718,#374);
#233=LINE('',#1724,#375);
#234=LINE('',#1727,#376);
#235=LINE('',#1729,#377);
#236=LINE('',#1730,#378);
#237=LINE('',#1733,#379);
#238=LINE('',#1735,#380);
#239=LINE('',#1736,#381);
#240=LINE('',#1743,#382);
#241=LINE('',#1745,#383);
#242=LINE('',#1747,#384);
#243=LINE('',#1748,#385);
#244=LINE('',#1751,#386);
#245=LINE('',#1753,#387);
#246=LINE('',#1754,#388);
#247=LINE('',#1757,#389);
#248=LINE('',#1759,#390);
#249=LINE('',#1760,#391);
#250=LINE('',#1762,#392);
#251=LINE('',#1763,#393);
#252=LINE('',#1772,#394);
#253=LINE('',#1775,#395);
#254=LINE('',#1780,#396);
#255=LINE('',#1788,#397);
#256=LINE('',#1790,#398);
#257=LINE('',#1792,#399);
#258=LINE('',#1794,#400);
#259=LINE('',#1796,#401);
#260=LINE('',#1800,#402);
#261=LINE('',#1803,#403);
#262=LINE('',#1804,#404);
#263=LINE('',#1809,#405);
#264=LINE('',#1811,#406);
#265=LINE('',#1813,#407);
#266=LINE('',#1815,#408);
#267=LINE('',#1819,#409);
#268=LINE('',#1821,#410);
#269=LINE('',#1823,#411);
#270=LINE('',#1827,#412);
#271=LINE('',#1829,#413);
#272=LINE('',#1831,#414);
#273=LINE('',#1832,#415);
#274=LINE('',#1835,#416);
#275=LINE('',#1840,#417);
#276=LINE('',#1842,#418);
#277=LINE('',#1844,#419);
#278=LINE('',#1845,#420);
#279=LINE('',#1848,#421);
#280=LINE('',#1850,#422);
#281=LINE('',#1851,#423);
#282=LINE('',#1854,#424);
#283=LINE('',#1856,#425);
#284=LINE('',#1857,#426);
#285=LINE('',#1860,#427);
#286=LINE('',#1862,#428);
#287=LINE('',#1863,#429);
#288=LINE('',#1866,#430);
#289=LINE('',#1868,#431);
#290=LINE('',#1869,#432);
#291=LINE('',#1871,#433);
#292=LINE('',#1872,#434);
#293=LINE('',#1875,#435);
#294=LINE('',#1877,#436);
#295=LINE('',#1878,#437);
#296=LINE('',#1881,#438);
#297=LINE('',#1883,#439);
#298=LINE('',#1884,#440);
#299=LINE('',#1888,#441);
#300=LINE('',#1889,#442);
#301=LINE('',#1890,#443);
#302=LINE('',#1892,#444);
#303=LINE('',#1896,#445);
#304=LINE('',#1897,#446);
#305=LINE('',#1898,#447);
#306=LINE('',#1900,#448);
#307=LINE('',#1902,#449);
#308=LINE('',#1904,#450);
#309=LINE('',#1905,#451);
#310=LINE('',#1908,#452);
#311=LINE('',#1909,#453);
#312=LINE('',#1912,#454);
#313=LINE('',#1915,#455);
#314=LINE('',#1916,#456);
#315=LINE('',#1918,#457);
#316=LINE('',#1920,#458);
#317=LINE('',#1921,#459);
#318=LINE('',#1925,#460);
#319=LINE('',#1928,#461);
#320=LINE('',#1929,#462);
#321=LINE('',#1932,#463);
#322=LINE('',#1933,#464);
#323=LINE('',#1936,#465);
#324=LINE('',#1937,#466);
#325=LINE('',#1946,#467);
#326=LINE('',#1951,#468);
#327=LINE('',#1953,#469);
#328=LINE('',#1955,#470);
#329=LINE('',#1956,#471);
#330=LINE('',#1959,#472);
#331=LINE('',#1961,#473);
#332=LINE('',#1962,#474);
#333=LINE('',#1965,#475);
#334=LINE('',#1967,#476);
#335=LINE('',#1968,#477);
#336=LINE('',#1971,#478);
#337=LINE('',#1973,#479);
#338=LINE('',#1974,#480);
#339=LINE('',#1977,#481);
#340=LINE('',#1979,#482);
#341=LINE('',#1980,#483);
#342=LINE('',#1983,#484);
#343=LINE('',#1985,#485);
#344=LINE('',#1986,#486);
#345=LINE('',#1989,#487);
#346=LINE('',#1991,#488);
#347=LINE('',#1992,#489);
#348=LINE('',#1994,#490);
#349=LINE('',#1995,#491);
#350=VECTOR('',#1345,10.);
#351=VECTOR('',#1346,10.);
#352=VECTOR('',#1347,10.);
#353=VECTOR('',#1348,10.);
#354=VECTOR('',#1351,10.);
#355=VECTOR('',#1352,10.);
#356=VECTOR('',#1353,10.);
#357=VECTOR('',#1356,10.);
#358=VECTOR('',#1357,10.);
#359=VECTOR('',#1358,10.);
#360=VECTOR('',#1361,10.);
#361=VECTOR('',#1362,10.);
#362=VECTOR('',#1371,10.);
#363=VECTOR('',#1372,10.);
#364=VECTOR('',#1373,10.);
#365=VECTOR('',#1374,10.);
#366=VECTOR('',#1377,10.);
#367=VECTOR('',#1378,10.);
#368=VECTOR('',#1379,10.);
#369=VECTOR('',#1382,10.);
#370=VECTOR('',#1383,10.);
#371=VECTOR('',#1384,10.);
#372=VECTOR('',#1387,10.);
#373=VECTOR('',#1388,10.);
#374=VECTOR('',#1389,10.);
#375=VECTOR('',#1396,10.);
#376=VECTOR('',#1399,10.);
#377=VECTOR('',#1400,10.);
#378=VECTOR('',#1401,10.);
#379=VECTOR('',#1404,10.);
#380=VECTOR('',#1405,10.);
#381=VECTOR('',#1406,10.);
#382=VECTOR('',#1415,10.);
#383=VECTOR('',#1416,10.);
#384=VECTOR('',#1417,10.);
#385=VECTOR('',#1418,10.);
#386=VECTOR('',#1421,10.);
#387=VECTOR('',#1422,10.);
#388=VECTOR('',#1423,10.);
#389=VECTOR('',#1426,10.);
#390=VECTOR('',#1427,10.);
#391=VECTOR('',#1428,10.);
#392=VECTOR('',#1431,10.);
#393=VECTOR('',#1432,10.);
#394=VECTOR('',#1443,10.);
#395=VECTOR('',#1446,10.);
#396=VECTOR('',#1451,10.);
#397=VECTOR('',#1460,10.);
#398=VECTOR('',#1461,10.);
#399=VECTOR('',#1462,10.);
#400=VECTOR('',#1463,10.);
#401=VECTOR('',#1464,10.);
#402=VECTOR('',#1469,10.);
#403=VECTOR('',#1474,10.);
#404=VECTOR('',#1475,10.);
#405=VECTOR('',#1480,10.);
#406=VECTOR('',#1481,10.);
#407=VECTOR('',#1482,10.);
#408=VECTOR('',#1483,10.);
#409=VECTOR('',#1486,10.);
#410=VECTOR('',#1487,10.);
#411=VECTOR('',#1488,10.);
#412=VECTOR('',#1491,10.);
#413=VECTOR('',#1492,10.);
#414=VECTOR('',#1493,10.);
#415=VECTOR('',#1494,10.);
#416=VECTOR('',#1497,2.25000000000001);
#417=VECTOR('',#1502,10.);
#418=VECTOR('',#1503,10.);
#419=VECTOR('',#1504,10.);
#420=VECTOR('',#1505,10.);
#421=VECTOR('',#1508,10.);
#422=VECTOR('',#1509,10.);
#423=VECTOR('',#1510,10.);
#424=VECTOR('',#1513,10.);
#425=VECTOR('',#1514,10.);
#426=VECTOR('',#1515,10.);
#427=VECTOR('',#1518,10.);
#428=VECTOR('',#1519,10.);
#429=VECTOR('',#1520,10.);
#430=VECTOR('',#1523,10.);
#431=VECTOR('',#1524,10.);
#432=VECTOR('',#1525,10.);
#433=VECTOR('',#1526,10.);
#434=VECTOR('',#1527,10.);
#435=VECTOR('',#1530,10.);
#436=VECTOR('',#1531,10.);
#437=VECTOR('',#1532,10.);
#438=VECTOR('',#1535,10.);
#439=VECTOR('',#1536,10.);
#440=VECTOR('',#1537,10.);
#441=VECTOR('',#1540,10.);
#442=VECTOR('',#1541,10.);
#443=VECTOR('',#1542,10.);
#444=VECTOR('',#1545,10.);
#445=VECTOR('',#1548,10.);
#446=VECTOR('',#1549,10.);
#447=VECTOR('',#1550,10.);
#448=VECTOR('',#1553,10.);
#449=VECTOR('',#1556,10.);
#450=VECTOR('',#1557,10.);
#451=VECTOR('',#1558,10.);
#452=VECTOR('',#1561,10.);
#453=VECTOR('',#1562,10.);
#454=VECTOR('',#1567,10.);
#455=VECTOR('',#1570,10.);
#456=VECTOR('',#1571,10.);
#457=VECTOR('',#1574,10.);
#458=VECTOR('',#1577,10.);
#459=VECTOR('',#1578,10.);
#460=VECTOR('',#1583,10.);
#461=VECTOR('',#1586,10.);
#462=VECTOR('',#1587,10.);
#463=VECTOR('',#1590,10.);
#464=VECTOR('',#1591,10.);
#465=VECTOR('',#1594,10.);
#466=VECTOR('',#1595,10.);
#467=VECTOR('',#1608,2.65);
#468=VECTOR('',#1613,10.);
#469=VECTOR('',#1614,10.);
#470=VECTOR('',#1615,10.);
#471=VECTOR('',#1616,10.);
#472=VECTOR('',#1619,10.);
#473=VECTOR('',#1620,10.);
#474=VECTOR('',#1621,10.);
#475=VECTOR('',#1624,10.);
#476=VECTOR('',#1625,10.);
#477=VECTOR('',#1626,10.);
#478=VECTOR('',#1629,10.);
#479=VECTOR('',#1630,10.);
#480=VECTOR('',#1631,10.);
#481=VECTOR('',#1634,10.);
#482=VECTOR('',#1635,10.);
#483=VECTOR('',#1636,10.);
#484=VECTOR('',#1639,10.);
#485=VECTOR('',#1640,10.);
#486=VECTOR('',#1641,10.);
#487=VECTOR('',#1644,10.);
#488=VECTOR('',#1645,10.);
#489=VECTOR('',#1646,10.);
#490=VECTOR('',#1649,10.);
#491=VECTOR('',#1650,10.);
#492=VERTEX_POINT('',#1666);
#493=VERTEX_POINT('',#1667);
#494=VERTEX_POINT('',#1669);
#495=VERTEX_POINT('',#1671);
#496=VERTEX_POINT('',#1675);
#497=VERTEX_POINT('',#1677);
#498=VERTEX_POINT('',#1681);
#499=VERTEX_POINT('',#1683);
#500=VERTEX_POINT('',#1693);
#501=VERTEX_POINT('',#1694);
#502=VERTEX_POINT('',#1696);
#503=VERTEX_POINT('',#1698);
#504=VERTEX_POINT('',#1702);
#505=VERTEX_POINT('',#1704);
#506=VERTEX_POINT('',#1708);
#507=VERTEX_POINT('',#1710);
#508=VERTEX_POINT('',#1714);
#509=VERTEX_POINT('',#1716);
#510=VERTEX_POINT('',#1720);
#511=VERTEX_POINT('',#1722);
#512=VERTEX_POINT('',#1726);
#513=VERTEX_POINT('',#1728);
#514=VERTEX_POINT('',#1732);
#515=VERTEX_POINT('',#1734);
#516=VERTEX_POINT('',#1741);
#517=VERTEX_POINT('',#1742);
#518=VERTEX_POINT('',#1744);
#519=VERTEX_POINT('',#1746);
#520=VERTEX_POINT('',#1750);
#521=VERTEX_POINT('',#1752);
#522=VERTEX_POINT('',#1756);
#523=VERTEX_POINT('',#1758);
#524=VERTEX_POINT('',#1768);
#525=VERTEX_POINT('',#1769);
#526=VERTEX_POINT('',#1771);
#527=VERTEX_POINT('',#1773);
#528=VERTEX_POINT('',#1777);
#529=VERTEX_POINT('',#1779);
#530=VERTEX_POINT('',#1781);
#531=VERTEX_POINT('',#1783);
#532=VERTEX_POINT('',#1787);
#533=VERTEX_POINT('',#1789);
#534=VERTEX_POINT('',#1791);
#535=VERTEX_POINT('',#1793);
#536=VERTEX_POINT('',#1795);
#537=VERTEX_POINT('',#1799);
#538=VERTEX_POINT('',#1805);
#539=VERTEX_POINT('',#1808);
#540=VERTEX_POINT('',#1810);
#541=VERTEX_POINT('',#1812);
#542=VERTEX_POINT('',#1814);
#543=VERTEX_POINT('',#1816);
#544=VERTEX_POINT('',#1818);
#545=VERTEX_POINT('',#1820);
#546=VERTEX_POINT('',#1822);
#547=VERTEX_POINT('',#1824);
#548=VERTEX_POINT('',#1826);
#549=VERTEX_POINT('',#1828);
#550=VERTEX_POINT('',#1830);
#551=VERTEX_POINT('',#1834);
#552=VERTEX_POINT('',#1838);
#553=VERTEX_POINT('',#1839);
#554=VERTEX_POINT('',#1841);
#555=VERTEX_POINT('',#1843);
#556=VERTEX_POINT('',#1847);
#557=VERTEX_POINT('',#1849);
#558=VERTEX_POINT('',#1853);
#559=VERTEX_POINT('',#1855);
#560=VERTEX_POINT('',#1859);
#561=VERTEX_POINT('',#1861);
#562=VERTEX_POINT('',#1865);
#563=VERTEX_POINT('',#1867);
#564=VERTEX_POINT('',#1870);
#565=VERTEX_POINT('',#1874);
#566=VERTEX_POINT('',#1876);
#567=VERTEX_POINT('',#1880);
#568=VERTEX_POINT('',#1882);
#569=VERTEX_POINT('',#1886);
#570=VERTEX_POINT('',#1887);
#571=VERTEX_POINT('',#1894);
#572=VERTEX_POINT('',#1895);
#573=VERTEX_POINT('',#1903);
#574=VERTEX_POINT('',#1907);
#575=VERTEX_POINT('',#1914);
#576=VERTEX_POINT('',#1923);
#577=VERTEX_POINT('',#1927);
#578=VERTEX_POINT('',#1931);
#579=VERTEX_POINT('',#1935);
#580=VERTEX_POINT('',#1943);
#581=VERTEX_POINT('',#1945);
#582=VERTEX_POINT('',#1949);
#583=VERTEX_POINT('',#1950);
#584=VERTEX_POINT('',#1952);
#585=VERTEX_POINT('',#1954);
#586=VERTEX_POINT('',#1958);
#587=VERTEX_POINT('',#1960);
#588=VERTEX_POINT('',#1964);
#589=VERTEX_POINT('',#1966);
#590=VERTEX_POINT('',#1970);
#591=VERTEX_POINT('',#1972);
#592=VERTEX_POINT('',#1976);
#593=VERTEX_POINT('',#1978);
#594=VERTEX_POINT('',#1982);
#595=VERTEX_POINT('',#1984);
#596=VERTEX_POINT('',#1988);
#597=VERTEX_POINT('',#1990);
#598=EDGE_CURVE('',#492,#493,#208,.T.);
#599=EDGE_CURVE('',#493,#494,#209,.T.);
#600=EDGE_CURVE('',#495,#494,#210,.T.);
#601=EDGE_CURVE('',#492,#495,#211,.T.);
#602=EDGE_CURVE('',#496,#492,#212,.T.);
#603=EDGE_CURVE('',#497,#495,#213,.T.);
#604=EDGE_CURVE('',#496,#497,#214,.T.);
#605=EDGE_CURVE('',#498,#496,#215,.T.);
#606=EDGE_CURVE('',#499,#497,#216,.T.);
#607=EDGE_CURVE('',#498,#499,#217,.T.);
#608=EDGE_CURVE('',#493,#498,#218,.T.);
#609=EDGE_CURVE('',#494,#499,#219,.T.);
#610=EDGE_CURVE('',#500,#501,#220,.T.);
#611=EDGE_CURVE('',#501,#502,#221,.T.);
#612=EDGE_CURVE('',#503,#502,#222,.T.);
#613=EDGE_CURVE('',#500,#503,#223,.T.);
#614=EDGE_CURVE('',#504,#500,#224,.T.);
#615=EDGE_CURVE('',#505,#503,#225,.T.);
#616=EDGE_CURVE('',#504,#505,#226,.T.);
#617=EDGE_CURVE('',#506,#504,#227,.T.);
#618=EDGE_CURVE('',#507,#505,#228,.T.);
#619=EDGE_CURVE('',#506,#507,#229,.T.);
#620=EDGE_CURVE('',#508,#506,#230,.T.);
#621=EDGE_CURVE('',#509,#507,#231,.T.);
#622=EDGE_CURVE('',#508,#509,#232,.T.);
#623=EDGE_CURVE('',#510,#508,#33,.T.);
#624=EDGE_CURVE('',#511,#509,#34,.T.);
#625=EDGE_CURVE('',#510,#511,#233,.T.);
#626=EDGE_CURVE('',#512,#510,#234,.T.);
#627=EDGE_CURVE('',#513,#511,#235,.T.);
#628=EDGE_CURVE('',#512,#513,#236,.T.);
#629=EDGE_CURVE('',#514,#512,#237,.T.);
#630=EDGE_CURVE('',#515,#513,#238,.T.);
#631=EDGE_CURVE('',#514,#515,#239,.T.);
#632=EDGE_CURVE('',#501,#514,#35,.T.);
#633=EDGE_CURVE('',#502,#515,#36,.T.);
#634=EDGE_CURVE('',#516,#517,#240,.T.);
#635=EDGE_CURVE('',#517,#518,#241,.T.);
#636=EDGE_CURVE('',#519,#518,#242,.T.);
#637=EDGE_CURVE('',#516,#519,#243,.T.);
#638=EDGE_CURVE('',#520,#516,#244,.T.);
#639=EDGE_CURVE('',#521,#519,#245,.T.);
#640=EDGE_CURVE('',#520,#521,#246,.T.);
#641=EDGE_CURVE('',#522,#520,#247,.T.);
#642=EDGE_CURVE('',#523,#521,#248,.T.);
#643=EDGE_CURVE('',#522,#523,#249,.T.);
#644=EDGE_CURVE('',#517,#522,#250,.T.);
#645=EDGE_CURVE('',#518,#523,#251,.T.);
#646=EDGE_CURVE('',#524,#525,#37,.T.);
#647=EDGE_CURVE('',#525,#526,#252,.T.);
#648=EDGE_CURVE('',#526,#527,#38,.F.);
#649=EDGE_CURVE('',#527,#524,#253,.T.);
#650=EDGE_CURVE('',#528,#525,#39,.T.);
#651=EDGE_CURVE('',#529,#528,#254,.T.);
#652=EDGE_CURVE('',#529,#530,#40,.T.);
#653=EDGE_CURVE('',#531,#530,#41,.T.);
#654=EDGE_CURVE('',#531,#526,#42,.T.);
#655=EDGE_CURVE('',#532,#524,#255,.T.);
#656=EDGE_CURVE('',#532,#533,#256,.T.);
#657=EDGE_CURVE('',#534,#533,#257,.T.);
#658=EDGE_CURVE('',#535,#534,#258,.T.);
#659=EDGE_CURVE('',#536,#535,#259,.T.);
#660=EDGE_CURVE('',#528,#536,#43,.T.);
#661=EDGE_CURVE('',#536,#537,#260,.T.);
#662=EDGE_CURVE('',#537,#529,#44,.F.);
#663=EDGE_CURVE('',#527,#537,#261,.T.);
#664=EDGE_CURVE('',#531,#530,#262,.T.);
#665=EDGE_CURVE('',#538,#538,#45,.T.);
#666=EDGE_CURVE('',#535,#539,#263,.T.);
#667=EDGE_CURVE('',#539,#540,#264,.T.);
#668=EDGE_CURVE('',#540,#541,#265,.T.);
#669=EDGE_CURVE('',#541,#542,#266,.T.);
#670=EDGE_CURVE('',#542,#543,#46,.T.);
#671=EDGE_CURVE('',#543,#544,#267,.T.);
#672=EDGE_CURVE('',#544,#545,#268,.T.);
#673=EDGE_CURVE('',#545,#546,#269,.T.);
#674=EDGE_CURVE('',#546,#547,#47,.T.);
#675=EDGE_CURVE('',#547,#548,#270,.T.);
#676=EDGE_CURVE('',#548,#549,#271,.T.);
#677=EDGE_CURVE('',#549,#550,#272,.T.);
#678=EDGE_CURVE('',#550,#532,#273,.T.);
#679=EDGE_CURVE('',#538,#551,#274,.T.);
#680=EDGE_CURVE('',#551,#551,#48,.T.);
#681=EDGE_CURVE('',#552,#553,#275,.T.);
#682=EDGE_CURVE('',#553,#554,#276,.T.);
#683=EDGE_CURVE('',#554,#555,#277,.T.);
#684=EDGE_CURVE('',#555,#552,#278,.T.);
#685=EDGE_CURVE('',#556,#552,#279,.T.);
#686=EDGE_CURVE('',#555,#557,#280,.T.);
#687=EDGE_CURVE('',#557,#556,#281,.T.);
#688=EDGE_CURVE('',#557,#558,#282,.T.);
#689=EDGE_CURVE('',#558,#559,#283,.T.);
#690=EDGE_CURVE('',#559,#556,#284,.T.);
#691=EDGE_CURVE('',#559,#560,#285,.T.);
#692=EDGE_CURVE('',#561,#560,#286,.T.);
#693=EDGE_CURVE('',#556,#561,#287,.T.);
#694=EDGE_CURVE('',#562,#558,#288,.T.);
#695=EDGE_CURVE('',#563,#562,#289,.T.);
#696=EDGE_CURVE('',#540,#563,#290,.T.);
#697=EDGE_CURVE('',#539,#564,#291,.T.);
#698=EDGE_CURVE('',#560,#564,#292,.T.);
#699=EDGE_CURVE('',#552,#565,#293,.T.);
#700=EDGE_CURVE('',#566,#565,#294,.T.);
#701=EDGE_CURVE('',#553,#566,#295,.T.);
#702=EDGE_CURVE('',#567,#555,#296,.T.);
#703=EDGE_CURVE('',#568,#554,#297,.F.);
#704=EDGE_CURVE('',#568,#567,#298,.T.);
#705=EDGE_CURVE('',#569,#570,#299,.T.);
#706=EDGE_CURVE('',#548,#569,#300,.T.);
#707=EDGE_CURVE('',#570,#547,#301,.T.);
#708=EDGE_CURVE('',#565,#561,#302,.T.);
#709=EDGE_CURVE('',#571,#572,#303,.T.);
#710=EDGE_CURVE('',#571,#542,#304,.T.);
#711=EDGE_CURVE('',#541,#572,#305,.T.);
#712=EDGE_CURVE('',#572,#563,#306,.T.);
#713=EDGE_CURVE('',#564,#534,#307,.T.);
#714=EDGE_CURVE('',#533,#573,#308,.T.);
#715=EDGE_CURVE('',#573,#566,#309,.T.);
#716=EDGE_CURVE('',#574,#562,#310,.T.);
#717=EDGE_CURVE('',#574,#557,#311,.T.);
#718=EDGE_CURVE('',#550,#573,#312,.T.);
#719=EDGE_CURVE('',#549,#575,#313,.T.);
#720=EDGE_CURVE('',#575,#568,#314,.T.);
#721=EDGE_CURVE('',#575,#569,#315,.T.);
#722=EDGE_CURVE('',#530,#574,#316,.T.);
#723=EDGE_CURVE('',#567,#531,#317,.T.);
#724=EDGE_CURVE('',#576,#570,#49,.T.);
#725=EDGE_CURVE('',#576,#546,#318,.T.);
#726=EDGE_CURVE('',#577,#576,#319,.T.);
#727=EDGE_CURVE('',#577,#545,#320,.T.);
#728=EDGE_CURVE('',#578,#577,#321,.T.);
#729=EDGE_CURVE('',#578,#544,#322,.T.);
#730=EDGE_CURVE('',#579,#578,#323,.T.);
#731=EDGE_CURVE('',#579,#543,#324,.T.);
#732=EDGE_CURVE('',#571,#579,#50,.T.);
#733=EDGE_CURVE('',#580,#580,#51,.F.);
#734=EDGE_CURVE('',#580,#581,#325,.T.);
#735=EDGE_CURVE('',#581,#581,#52,.T.);
#736=EDGE_CURVE('',#582,#583,#326,.T.);
#737=EDGE_CURVE('',#584,#583,#327,.T.);
#738=EDGE_CURVE('',#584,#585,#328,.T.);
#739=EDGE_CURVE('',#585,#582,#329,.T.);
#740=EDGE_CURVE('',#583,#586,#330,.T.);
#741=EDGE_CURVE('',#587,#586,#331,.T.);
#742=EDGE_CURVE('',#584,#587,#332,.T.);
#743=EDGE_CURVE('',#586,#588,#333,.T.);
#744=EDGE_CURVE('',#589,#588,#334,.T.);
#745=EDGE_CURVE('',#589,#587,#335,.T.);
#746=EDGE_CURVE('',#588,#590,#336,.T.);
#747=EDGE_CURVE('',#591,#590,#337,.F.);
#748=EDGE_CURVE('',#589,#591,#338,.F.);
#749=EDGE_CURVE('',#590,#592,#339,.T.);
#750=EDGE_CURVE('',#593,#592,#340,.T.);
#751=EDGE_CURVE('',#591,#593,#341,.T.);
#752=EDGE_CURVE('',#592,#594,#342,.T.);
#753=EDGE_CURVE('',#595,#594,#343,.T.);
#754=EDGE_CURVE('',#593,#595,#344,.T.);
#755=EDGE_CURVE('',#594,#596,#345,.T.);
#756=EDGE_CURVE('',#597,#596,#346,.T.);
#757=EDGE_CURVE('',#595,#597,#347,.T.);
#758=EDGE_CURVE('',#596,#582,#348,.T.);
#759=EDGE_CURVE('',#597,#585,#349,.T.);
#760=ORIENTED_EDGE('',*,*,#598,.T.);
#761=ORIENTED_EDGE('',*,*,#599,.T.);
#762=ORIENTED_EDGE('',*,*,#600,.F.);
#763=ORIENTED_EDGE('',*,*,#601,.F.);
#764=ORIENTED_EDGE('',*,*,#602,.T.);
#765=ORIENTED_EDGE('',*,*,#601,.T.);
#766=ORIENTED_EDGE('',*,*,#603,.F.);
#767=ORIENTED_EDGE('',*,*,#604,.F.);
#768=ORIENTED_EDGE('',*,*,#605,.T.);
#769=ORIENTED_EDGE('',*,*,#604,.T.);
#770=ORIENTED_EDGE('',*,*,#606,.F.);
#771=ORIENTED_EDGE('',*,*,#607,.F.);
#772=ORIENTED_EDGE('',*,*,#608,.T.);
#773=ORIENTED_EDGE('',*,*,#607,.T.);
#774=ORIENTED_EDGE('',*,*,#609,.F.);
#775=ORIENTED_EDGE('',*,*,#599,.F.);
#776=ORIENTED_EDGE('',*,*,#609,.T.);
#777=ORIENTED_EDGE('',*,*,#606,.T.);
#778=ORIENTED_EDGE('',*,*,#603,.T.);
#779=ORIENTED_EDGE('',*,*,#600,.T.);
#780=ORIENTED_EDGE('',*,*,#608,.F.);
#781=ORIENTED_EDGE('',*,*,#598,.F.);
#782=ORIENTED_EDGE('',*,*,#602,.F.);
#783=ORIENTED_EDGE('',*,*,#605,.F.);
#784=ORIENTED_EDGE('',*,*,#610,.T.);
#785=ORIENTED_EDGE('',*,*,#611,.T.);
#786=ORIENTED_EDGE('',*,*,#612,.F.);
#787=ORIENTED_EDGE('',*,*,#613,.F.);
#788=ORIENTED_EDGE('',*,*,#614,.T.);
#789=ORIENTED_EDGE('',*,*,#613,.T.);
#790=ORIENTED_EDGE('',*,*,#615,.F.);
#791=ORIENTED_EDGE('',*,*,#616,.F.);
#792=ORIENTED_EDGE('',*,*,#617,.T.);
#793=ORIENTED_EDGE('',*,*,#616,.T.);
#794=ORIENTED_EDGE('',*,*,#618,.F.);
#795=ORIENTED_EDGE('',*,*,#619,.F.);
#796=ORIENTED_EDGE('',*,*,#620,.T.);
#797=ORIENTED_EDGE('',*,*,#619,.T.);
#798=ORIENTED_EDGE('',*,*,#621,.F.);
#799=ORIENTED_EDGE('',*,*,#622,.F.);
#800=ORIENTED_EDGE('',*,*,#623,.T.);
#801=ORIENTED_EDGE('',*,*,#622,.T.);
#802=ORIENTED_EDGE('',*,*,#624,.F.);
#803=ORIENTED_EDGE('',*,*,#625,.F.);
#804=ORIENTED_EDGE('',*,*,#626,.T.);
#805=ORIENTED_EDGE('',*,*,#625,.T.);
#806=ORIENTED_EDGE('',*,*,#627,.F.);
#807=ORIENTED_EDGE('',*,*,#628,.F.);
#808=ORIENTED_EDGE('',*,*,#629,.T.);
#809=ORIENTED_EDGE('',*,*,#628,.T.);
#810=ORIENTED_EDGE('',*,*,#630,.F.);
#811=ORIENTED_EDGE('',*,*,#631,.F.);
#812=ORIENTED_EDGE('',*,*,#632,.T.);
#813=ORIENTED_EDGE('',*,*,#631,.T.);
#814=ORIENTED_EDGE('',*,*,#633,.F.);
#815=ORIENTED_EDGE('',*,*,#611,.F.);
#816=ORIENTED_EDGE('',*,*,#634,.T.);
#817=ORIENTED_EDGE('',*,*,#635,.T.);
#818=ORIENTED_EDGE('',*,*,#636,.F.);
#819=ORIENTED_EDGE('',*,*,#637,.F.);
#820=ORIENTED_EDGE('',*,*,#638,.T.);
#821=ORIENTED_EDGE('',*,*,#637,.T.);
#822=ORIENTED_EDGE('',*,*,#639,.F.);
#823=ORIENTED_EDGE('',*,*,#640,.F.);
#824=ORIENTED_EDGE('',*,*,#641,.T.);
#825=ORIENTED_EDGE('',*,*,#640,.T.);
#826=ORIENTED_EDGE('',*,*,#642,.F.);
#827=ORIENTED_EDGE('',*,*,#643,.F.);
#828=ORIENTED_EDGE('',*,*,#644,.T.);
#829=ORIENTED_EDGE('',*,*,#643,.T.);
#830=ORIENTED_EDGE('',*,*,#645,.F.);
#831=ORIENTED_EDGE('',*,*,#635,.F.);
#832=ORIENTED_EDGE('',*,*,#645,.T.);
#833=ORIENTED_EDGE('',*,*,#642,.T.);
#834=ORIENTED_EDGE('',*,*,#639,.T.);
#835=ORIENTED_EDGE('',*,*,#636,.T.);
#836=ORIENTED_EDGE('',*,*,#633,.T.);
#837=ORIENTED_EDGE('',*,*,#630,.T.);
#838=ORIENTED_EDGE('',*,*,#627,.T.);
#839=ORIENTED_EDGE('',*,*,#624,.T.);
#840=ORIENTED_EDGE('',*,*,#621,.T.);
#841=ORIENTED_EDGE('',*,*,#618,.T.);
#842=ORIENTED_EDGE('',*,*,#615,.T.);
#843=ORIENTED_EDGE('',*,*,#612,.T.);
#844=ORIENTED_EDGE('',*,*,#644,.F.);
#845=ORIENTED_EDGE('',*,*,#634,.F.);
#846=ORIENTED_EDGE('',*,*,#638,.F.);
#847=ORIENTED_EDGE('',*,*,#641,.F.);
#848=ORIENTED_EDGE('',*,*,#632,.F.);
#849=ORIENTED_EDGE('',*,*,#610,.F.);
#850=ORIENTED_EDGE('',*,*,#614,.F.);
#851=ORIENTED_EDGE('',*,*,#617,.F.);
#852=ORIENTED_EDGE('',*,*,#620,.F.);
#853=ORIENTED_EDGE('',*,*,#623,.F.);
#854=ORIENTED_EDGE('',*,*,#626,.F.);
#855=ORIENTED_EDGE('',*,*,#629,.F.);
#856=ORIENTED_EDGE('',*,*,#646,.T.);
#857=ORIENTED_EDGE('',*,*,#647,.T.);
#858=ORIENTED_EDGE('',*,*,#648,.T.);
#859=ORIENTED_EDGE('',*,*,#649,.T.);
#860=ORIENTED_EDGE('',*,*,#647,.F.);
#861=ORIENTED_EDGE('',*,*,#650,.F.);
#862=ORIENTED_EDGE('',*,*,#651,.F.);
#863=ORIENTED_EDGE('',*,*,#652,.T.);
#864=ORIENTED_EDGE('',*,*,#653,.F.);
#865=ORIENTED_EDGE('',*,*,#654,.T.);
#866=ORIENTED_EDGE('',*,*,#646,.F.);
#867=ORIENTED_EDGE('',*,*,#655,.F.);
#868=ORIENTED_EDGE('',*,*,#656,.T.);
#869=ORIENTED_EDGE('',*,*,#657,.F.);
#870=ORIENTED_EDGE('',*,*,#658,.F.);
#871=ORIENTED_EDGE('',*,*,#659,.F.);
#872=ORIENTED_EDGE('',*,*,#660,.F.);
#873=ORIENTED_EDGE('',*,*,#650,.T.);
#874=ORIENTED_EDGE('',*,*,#660,.T.);
#875=ORIENTED_EDGE('',*,*,#661,.T.);
#876=ORIENTED_EDGE('',*,*,#662,.T.);
#877=ORIENTED_EDGE('',*,*,#651,.T.);
#878=ORIENTED_EDGE('',*,*,#663,.F.);
#879=ORIENTED_EDGE('',*,*,#648,.F.);
#880=ORIENTED_EDGE('',*,*,#654,.F.);
#881=ORIENTED_EDGE('',*,*,#664,.T.);
#882=ORIENTED_EDGE('',*,*,#652,.F.);
#883=ORIENTED_EDGE('',*,*,#662,.F.);
#884=ORIENTED_EDGE('',*,*,#665,.F.);
#885=ORIENTED_EDGE('',*,*,#663,.T.);
#886=ORIENTED_EDGE('',*,*,#661,.F.);
#887=ORIENTED_EDGE('',*,*,#659,.T.);
#888=ORIENTED_EDGE('',*,*,#666,.T.);
#889=ORIENTED_EDGE('',*,*,#667,.T.);
#890=ORIENTED_EDGE('',*,*,#668,.T.);
#891=ORIENTED_EDGE('',*,*,#669,.T.);
#892=ORIENTED_EDGE('',*,*,#670,.T.);
#893=ORIENTED_EDGE('',*,*,#671,.T.);
#894=ORIENTED_EDGE('',*,*,#672,.T.);
#895=ORIENTED_EDGE('',*,*,#673,.T.);
#896=ORIENTED_EDGE('',*,*,#674,.T.);
#897=ORIENTED_EDGE('',*,*,#675,.T.);
#898=ORIENTED_EDGE('',*,*,#676,.T.);
#899=ORIENTED_EDGE('',*,*,#677,.T.);
#900=ORIENTED_EDGE('',*,*,#678,.T.);
#901=ORIENTED_EDGE('',*,*,#655,.T.);
#902=ORIENTED_EDGE('',*,*,#649,.F.);
#903=ORIENTED_EDGE('',*,*,#665,.T.);
#904=ORIENTED_EDGE('',*,*,#679,.T.);
#905=ORIENTED_EDGE('',*,*,#680,.F.);
#906=ORIENTED_EDGE('',*,*,#679,.F.);
#907=ORIENTED_EDGE('',*,*,#681,.T.);
#908=ORIENTED_EDGE('',*,*,#682,.T.);
#909=ORIENTED_EDGE('',*,*,#683,.T.);
#910=ORIENTED_EDGE('',*,*,#684,.T.);
#911=ORIENTED_EDGE('',*,*,#685,.T.);
#912=ORIENTED_EDGE('',*,*,#684,.F.);
#913=ORIENTED_EDGE('',*,*,#686,.T.);
#914=ORIENTED_EDGE('',*,*,#687,.T.);
#915=ORIENTED_EDGE('',*,*,#688,.T.);
#916=ORIENTED_EDGE('',*,*,#689,.T.);
#917=ORIENTED_EDGE('',*,*,#690,.T.);
#918=ORIENTED_EDGE('',*,*,#687,.F.);
#919=ORIENTED_EDGE('',*,*,#690,.F.);
#920=ORIENTED_EDGE('',*,*,#691,.T.);
#921=ORIENTED_EDGE('',*,*,#692,.F.);
#922=ORIENTED_EDGE('',*,*,#693,.F.);
#923=ORIENTED_EDGE('',*,*,#689,.F.);
#924=ORIENTED_EDGE('',*,*,#694,.F.);
#925=ORIENTED_EDGE('',*,*,#695,.F.);
#926=ORIENTED_EDGE('',*,*,#696,.F.);
#927=ORIENTED_EDGE('',*,*,#667,.F.);
#928=ORIENTED_EDGE('',*,*,#697,.T.);
#929=ORIENTED_EDGE('',*,*,#698,.F.);
#930=ORIENTED_EDGE('',*,*,#691,.F.);
#931=ORIENTED_EDGE('',*,*,#681,.F.);
#932=ORIENTED_EDGE('',*,*,#699,.T.);
#933=ORIENTED_EDGE('',*,*,#700,.F.);
#934=ORIENTED_EDGE('',*,*,#701,.F.);
#935=ORIENTED_EDGE('',*,*,#702,.T.);
#936=ORIENTED_EDGE('',*,*,#683,.F.);
#937=ORIENTED_EDGE('',*,*,#703,.F.);
#938=ORIENTED_EDGE('',*,*,#704,.T.);
#939=ORIENTED_EDGE('',*,*,#705,.F.);
#940=ORIENTED_EDGE('',*,*,#706,.F.);
#941=ORIENTED_EDGE('',*,*,#675,.F.);
#942=ORIENTED_EDGE('',*,*,#707,.F.);
#943=ORIENTED_EDGE('',*,*,#685,.F.);
#944=ORIENTED_EDGE('',*,*,#693,.T.);
#945=ORIENTED_EDGE('',*,*,#708,.F.);
#946=ORIENTED_EDGE('',*,*,#699,.F.);
#947=ORIENTED_EDGE('',*,*,#709,.F.);
#948=ORIENTED_EDGE('',*,*,#710,.T.);
#949=ORIENTED_EDGE('',*,*,#669,.F.);
#950=ORIENTED_EDGE('',*,*,#711,.T.);
#951=ORIENTED_EDGE('',*,*,#712,.F.);
#952=ORIENTED_EDGE('',*,*,#711,.F.);
#953=ORIENTED_EDGE('',*,*,#668,.F.);
#954=ORIENTED_EDGE('',*,*,#696,.T.);
#955=ORIENTED_EDGE('',*,*,#692,.T.);
#956=ORIENTED_EDGE('',*,*,#698,.T.);
#957=ORIENTED_EDGE('',*,*,#713,.T.);
#958=ORIENTED_EDGE('',*,*,#657,.T.);
#959=ORIENTED_EDGE('',*,*,#714,.T.);
#960=ORIENTED_EDGE('',*,*,#715,.T.);
#961=ORIENTED_EDGE('',*,*,#700,.T.);
#962=ORIENTED_EDGE('',*,*,#708,.T.);
#963=ORIENTED_EDGE('',*,*,#716,.T.);
#964=ORIENTED_EDGE('',*,*,#694,.T.);
#965=ORIENTED_EDGE('',*,*,#688,.F.);
#966=ORIENTED_EDGE('',*,*,#717,.F.);
#967=ORIENTED_EDGE('',*,*,#697,.F.);
#968=ORIENTED_EDGE('',*,*,#666,.F.);
#969=ORIENTED_EDGE('',*,*,#658,.T.);
#970=ORIENTED_EDGE('',*,*,#713,.F.);
#971=ORIENTED_EDGE('',*,*,#656,.F.);
#972=ORIENTED_EDGE('',*,*,#678,.F.);
#973=ORIENTED_EDGE('',*,*,#718,.T.);
#974=ORIENTED_EDGE('',*,*,#714,.F.);
#975=ORIENTED_EDGE('',*,*,#682,.F.);
#976=ORIENTED_EDGE('',*,*,#701,.T.);
#977=ORIENTED_EDGE('',*,*,#715,.F.);
#978=ORIENTED_EDGE('',*,*,#718,.F.);
#979=ORIENTED_EDGE('',*,*,#677,.F.);
#980=ORIENTED_EDGE('',*,*,#719,.T.);
#981=ORIENTED_EDGE('',*,*,#720,.T.);
#982=ORIENTED_EDGE('',*,*,#703,.T.);
#983=ORIENTED_EDGE('',*,*,#721,.F.);
#984=ORIENTED_EDGE('',*,*,#719,.F.);
#985=ORIENTED_EDGE('',*,*,#676,.F.);
#986=ORIENTED_EDGE('',*,*,#706,.T.);
#987=ORIENTED_EDGE('',*,*,#653,.T.);
#988=ORIENTED_EDGE('',*,*,#722,.T.);
#989=ORIENTED_EDGE('',*,*,#717,.T.);
#990=ORIENTED_EDGE('',*,*,#686,.F.);
#991=ORIENTED_EDGE('',*,*,#702,.F.);
#992=ORIENTED_EDGE('',*,*,#723,.T.);
#993=ORIENTED_EDGE('',*,*,#724,.T.);
#994=ORIENTED_EDGE('',*,*,#707,.T.);
#995=ORIENTED_EDGE('',*,*,#674,.F.);
#996=ORIENTED_EDGE('',*,*,#725,.F.);
#997=ORIENTED_EDGE('',*,*,#726,.T.);
#998=ORIENTED_EDGE('',*,*,#725,.T.);
#999=ORIENTED_EDGE('',*,*,#673,.F.);
#1000=ORIENTED_EDGE('',*,*,#727,.F.);
#1001=ORIENTED_EDGE('',*,*,#728,.T.);
#1002=ORIENTED_EDGE('',*,*,#727,.T.);
#1003=ORIENTED_EDGE('',*,*,#672,.F.);
#1004=ORIENTED_EDGE('',*,*,#729,.F.);
#1005=ORIENTED_EDGE('',*,*,#680,.T.);
#1006=ORIENTED_EDGE('',*,*,#730,.T.);
#1007=ORIENTED_EDGE('',*,*,#729,.T.);
#1008=ORIENTED_EDGE('',*,*,#671,.F.);
#1009=ORIENTED_EDGE('',*,*,#731,.F.);
#1010=ORIENTED_EDGE('',*,*,#732,.T.);
#1011=ORIENTED_EDGE('',*,*,#731,.T.);
#1012=ORIENTED_EDGE('',*,*,#670,.F.);
#1013=ORIENTED_EDGE('',*,*,#710,.F.);
#1014=ORIENTED_EDGE('',*,*,#704,.F.);
#1015=ORIENTED_EDGE('',*,*,#720,.F.);
#1016=ORIENTED_EDGE('',*,*,#721,.T.);
#1017=ORIENTED_EDGE('',*,*,#705,.T.);
#1018=ORIENTED_EDGE('',*,*,#724,.F.);
#1019=ORIENTED_EDGE('',*,*,#726,.F.);
#1020=ORIENTED_EDGE('',*,*,#728,.F.);
#1021=ORIENTED_EDGE('',*,*,#730,.F.);
#1022=ORIENTED_EDGE('',*,*,#732,.F.);
#1023=ORIENTED_EDGE('',*,*,#709,.T.);
#1024=ORIENTED_EDGE('',*,*,#712,.T.);
#1025=ORIENTED_EDGE('',*,*,#695,.T.);
#1026=ORIENTED_EDGE('',*,*,#716,.F.);
#1027=ORIENTED_EDGE('',*,*,#722,.F.);
#1028=ORIENTED_EDGE('',*,*,#664,.F.);
#1029=ORIENTED_EDGE('',*,*,#723,.F.);
#1030=ORIENTED_EDGE('',*,*,#733,.F.);
#1031=ORIENTED_EDGE('',*,*,#734,.T.);
#1032=ORIENTED_EDGE('',*,*,#735,.F.);
#1033=ORIENTED_EDGE('',*,*,#734,.F.);
#1034=ORIENTED_EDGE('',*,*,#736,.T.);
#1035=ORIENTED_EDGE('',*,*,#737,.F.);
#1036=ORIENTED_EDGE('',*,*,#738,.T.);
#1037=ORIENTED_EDGE('',*,*,#739,.T.);
#1038=ORIENTED_EDGE('',*,*,#740,.T.);
#1039=ORIENTED_EDGE('',*,*,#741,.F.);
#1040=ORIENTED_EDGE('',*,*,#742,.F.);
#1041=ORIENTED_EDGE('',*,*,#737,.T.);
#1042=ORIENTED_EDGE('',*,*,#743,.T.);
#1043=ORIENTED_EDGE('',*,*,#744,.F.);
#1044=ORIENTED_EDGE('',*,*,#745,.T.);
#1045=ORIENTED_EDGE('',*,*,#741,.T.);
#1046=ORIENTED_EDGE('',*,*,#746,.T.);
#1047=ORIENTED_EDGE('',*,*,#747,.F.);
#1048=ORIENTED_EDGE('',*,*,#748,.F.);
#1049=ORIENTED_EDGE('',*,*,#744,.T.);
#1050=ORIENTED_EDGE('',*,*,#733,.T.);
#1051=ORIENTED_EDGE('',*,*,#749,.T.);
#1052=ORIENTED_EDGE('',*,*,#750,.F.);
#1053=ORIENTED_EDGE('',*,*,#751,.F.);
#1054=ORIENTED_EDGE('',*,*,#747,.T.);
#1055=ORIENTED_EDGE('',*,*,#752,.T.);
#1056=ORIENTED_EDGE('',*,*,#753,.F.);
#1057=ORIENTED_EDGE('',*,*,#754,.F.);
#1058=ORIENTED_EDGE('',*,*,#750,.T.);
#1059=ORIENTED_EDGE('',*,*,#755,.T.);
#1060=ORIENTED_EDGE('',*,*,#756,.F.);
#1061=ORIENTED_EDGE('',*,*,#757,.F.);
#1062=ORIENTED_EDGE('',*,*,#753,.T.);
#1063=ORIENTED_EDGE('',*,*,#758,.T.);
#1064=ORIENTED_EDGE('',*,*,#739,.F.);
#1065=ORIENTED_EDGE('',*,*,#759,.F.);
#1066=ORIENTED_EDGE('',*,*,#756,.T.);
#1067=ORIENTED_EDGE('',*,*,#735,.T.);
#1068=ORIENTED_EDGE('',*,*,#748,.T.);
#1069=ORIENTED_EDGE('',*,*,#751,.T.);
#1070=ORIENTED_EDGE('',*,*,#754,.T.);
#1071=ORIENTED_EDGE('',*,*,#757,.T.);
#1072=ORIENTED_EDGE('',*,*,#759,.T.);
#1073=ORIENTED_EDGE('',*,*,#738,.F.);
#1074=ORIENTED_EDGE('',*,*,#742,.T.);
#1075=ORIENTED_EDGE('',*,*,#745,.F.);
#1076=ORIENTED_EDGE('',*,*,#749,.F.);
#1077=ORIENTED_EDGE('',*,*,#746,.F.);
#1078=ORIENTED_EDGE('',*,*,#743,.F.);
#1079=ORIENTED_EDGE('',*,*,#740,.F.);
#1080=ORIENTED_EDGE('',*,*,#736,.F.);
#1081=ORIENTED_EDGE('',*,*,#758,.F.);
#1082=ORIENTED_EDGE('',*,*,#755,.F.);
#1083=ORIENTED_EDGE('',*,*,#752,.F.);
#1084=PLANE('',#1250);
#1085=PLANE('',#1251);
#1086=PLANE('',#1252);
#1087=PLANE('',#1253);
#1088=PLANE('',#1254);
#1089=PLANE('',#1255);
#1090=PLANE('',#1257);
#1091=PLANE('',#1258);
#1092=PLANE('',#1259);
#1093=PLANE('',#1260);
#1094=PLANE('',#1264);
#1095=PLANE('',#1265);
#1096=PLANE('',#1269);
#1097=PLANE('',#1270);
#1098=PLANE('',#1271);
#1099=PLANE('',#1272);
#1100=PLANE('',#1273);
#1101=PLANE('',#1274);
#1102=PLANE('',#1284);
#1103=PLANE('',#1288);
#1104=PLANE('',#1290);
#1105=PLANE('',#1295);
#1106=PLANE('',#1296);
#1107=PLANE('',#1297);
#1108=PLANE('',#1298);
#1109=PLANE('',#1299);
#1110=PLANE('',#1300);
#1111=PLANE('',#1301);
#1112=PLANE('',#1302);
#1113=PLANE('',#1303);
#1114=PLANE('',#1304);
#1115=PLANE('',#1305);
#1116=PLANE('',#1306);
#1117=PLANE('',#1307);
#1118=PLANE('',#1308);
#1119=PLANE('',#1309);
#1120=PLANE('',#1310);
#1121=PLANE('',#1311);
#1122=PLANE('',#1312);
#1123=PLANE('',#1315);
#1124=PLANE('',#1316);
#1125=PLANE('',#1317);
#1126=PLANE('',#1320);
#1127=PLANE('',#1325);
#1128=PLANE('',#1326);
#1129=PLANE('',#1327);
#1130=PLANE('',#1328);
#1131=PLANE('',#1329);
#1132=PLANE('',#1330);
#1133=PLANE('',#1331);
#1134=PLANE('',#1332);
#1135=PLANE('',#1333);
#1136=PLANE('',#1334);
#1137=ADVANCED_FACE('',(#78),#1084,.T.);
#1138=ADVANCED_FACE('',(#79),#1085,.T.);
#1139=ADVANCED_FACE('',(#80),#1086,.T.);
#1140=ADVANCED_FACE('',(#81),#1087,.T.);
#1141=ADVANCED_FACE('',(#82),#1088,.T.);
#1142=ADVANCED_FACE('',(#83),#1089,.F.);
#1143=ADVANCED_FACE('',(#84),#1090,.T.);
#1144=ADVANCED_FACE('',(#85),#1091,.T.);
#1145=ADVANCED_FACE('',(#86),#1092,.T.);
#1146=ADVANCED_FACE('',(#87),#1093,.T.);
#1147=ADVANCED_FACE('',(#88),#53,.F.);
#1148=ADVANCED_FACE('',(#89),#1094,.T.);
#1149=ADVANCED_FACE('',(#90),#1095,.T.);
#1150=ADVANCED_FACE('',(#91),#54,.F.);
#1151=ADVANCED_FACE('',(#92),#1096,.T.);
#1152=ADVANCED_FACE('',(#93),#1097,.T.);
#1153=ADVANCED_FACE('',(#94),#1098,.T.);
#1154=ADVANCED_FACE('',(#95),#1099,.T.);
#1155=ADVANCED_FACE('',(#96,#27),#1100,.T.);
#1156=ADVANCED_FACE('',(#97,#28),#1101,.F.);
#1157=ADVANCED_FACE('',(#98),#55,.T.);
#1158=ADVANCED_FACE('',(#99),#56,.F.);
#1159=ADVANCED_FACE('',(#100),#1102,.T.);
#1160=ADVANCED_FACE('',(#101),#57,.T.);
#1161=ADVANCED_FACE('',(#102,#29),#1103,.T.);
#1162=ADVANCED_FACE('',(#103),#1104,.F.);
#1163=ADVANCED_FACE('',(#104),#58,.F.);
#1164=ADVANCED_FACE('',(#105),#1105,.T.);
#1165=ADVANCED_FACE('',(#106),#1106,.T.);
#1166=ADVANCED_FACE('',(#107),#1107,.T.);
#1167=ADVANCED_FACE('',(#108),#1108,.T.);
#1168=ADVANCED_FACE('',(#109),#1109,.T.);
#1169=ADVANCED_FACE('',(#110),#1110,.T.);
#1170=ADVANCED_FACE('',(#111),#1111,.T.);
#1171=ADVANCED_FACE('',(#112),#1112,.T.);
#1172=ADVANCED_FACE('',(#113),#1113,.T.);
#1173=ADVANCED_FACE('',(#114),#1114,.T.);
#1174=ADVANCED_FACE('',(#115),#1115,.T.);
#1175=ADVANCED_FACE('',(#116),#1116,.T.);
#1176=ADVANCED_FACE('',(#117),#1117,.T.);
#1177=ADVANCED_FACE('',(#118),#1118,.T.);
#1178=ADVANCED_FACE('',(#119),#1119,.T.);
#1179=ADVANCED_FACE('',(#120),#1120,.T.);
#1180=ADVANCED_FACE('',(#121),#1121,.T.);
#1181=ADVANCED_FACE('',(#122),#1122,.T.);
#1182=ADVANCED_FACE('',(#123),#59,.F.);
#1183=ADVANCED_FACE('',(#124),#1123,.T.);
#1184=ADVANCED_FACE('',(#125,#30),#1124,.T.);
#1185=ADVANCED_FACE('',(#126),#1125,.T.);
#1186=ADVANCED_FACE('',(#127),#60,.F.);
#1187=ADVANCED_FACE('',(#128),#1126,.T.);
#1188=ADVANCED_FACE('',(#129),#61,.F.);
#1189=ADVANCED_FACE('',(#130),#1127,.T.);
#1190=ADVANCED_FACE('',(#131),#1128,.T.);
#1191=ADVANCED_FACE('',(#132),#1129,.T.);
#1192=ADVANCED_FACE('',(#133,#31),#1130,.T.);
#1193=ADVANCED_FACE('',(#134),#1131,.T.);
#1194=ADVANCED_FACE('',(#135),#1132,.T.);
#1195=ADVANCED_FACE('',(#136),#1133,.T.);
#1196=ADVANCED_FACE('',(#137,#32),#1134,.T.);
#1197=ADVANCED_FACE('',(#138),#1135,.T.);
#1198=ADVANCED_FACE('',(#139),#1136,.T.);
#1199=CLOSED_SHELL('',(#1137,#1138,#1139,#1140,#1141,#1142));
#1200=CLOSED_SHELL('',(#1143,#1144,#1145,#1146,#1147,#1148,#1149,#1150,
#1151,#1152,#1153,#1154,#1155,#1156));
#1201=CLOSED_SHELL('',(#1157,#1158,#1159,#1160,#1161,#1162,#1163,#1164,
#1165,#1166,#1167,#1168,#1169,#1170,#1171,#1172,#1173,#1174,#1175,#1176,
#1177,#1178,#1179,#1180,#1181,#1182,#1183,#1184,#1185,#1186,#1187));
#1202=CLOSED_SHELL('',(#1188,#1189,#1190,#1191,#1192,#1193,#1194,#1195,
#1196,#1197,#1198));
#1203=DERIVED_UNIT_ELEMENT(#1211,1.);
#1204=DERIVED_UNIT_ELEMENT(#2015,-3.);
#1205=DERIVED_UNIT_ELEMENT(#1211,1.);
#1206=DERIVED_UNIT_ELEMENT(#2015,-3.);
#1207=DERIVED_UNIT_ELEMENT(#1211,1.);
#1208=DERIVED_UNIT_ELEMENT(#2015,-3.);
#1209=DERIVED_UNIT_ELEMENT(#1211,1.);
#1210=DERIVED_UNIT_ELEMENT(#2015,-3.);
#1211=(
MASS_UNIT()
NAMED_UNIT(*)
SI_UNIT(.KILO.,.GRAM.)
);
#1212=DERIVED_UNIT((#1203,#1204));
#1213=DERIVED_UNIT((#1205,#1206));
#1214=DERIVED_UNIT((#1207,#1208));
#1215=DERIVED_UNIT((#1209,#1210));
#1216=MEASURE_REPRESENTATION_ITEM('density measure',
POSITIVE_RATIO_MEASURE(7850.),#1212);
#1217=MEASURE_REPRESENTATION_ITEM('density measure',
POSITIVE_RATIO_MEASURE(7850.),#1213);
#1218=MEASURE_REPRESENTATION_ITEM('density measure',
POSITIVE_RATIO_MEASURE(7850.),#1214);
#1219=MEASURE_REPRESENTATION_ITEM('density measure',
POSITIVE_RATIO_MEASURE(7850.),#1215);
#1220=PROPERTY_DEFINITION_REPRESENTATION(#1240,#1228);
#1221=PROPERTY_DEFINITION_REPRESENTATION(#1241,#1229);
#1222=PROPERTY_DEFINITION_REPRESENTATION(#1242,#1230);
#1223=PROPERTY_DEFINITION_REPRESENTATION(#1243,#1231);
#1224=PROPERTY_DEFINITION_REPRESENTATION(#1244,#1232);
#1225=PROPERTY_DEFINITION_REPRESENTATION(#1245,#1233);
#1226=PROPERTY_DEFINITION_REPRESENTATION(#1246,#1234);
#1227=PROPERTY_DEFINITION_REPRESENTATION(#1247,#1235);
#1228=REPRESENTATION('material name',(#1236),#2009);
#1229=REPRESENTATION('density',(#1216),#2009);
#1230=REPRESENTATION('material name',(#1237),#2010);
#1231=REPRESENTATION('density',(#1217),#2010);
#1232=REPRESENTATION('material name',(#1238),#2011);
#1233=REPRESENTATION('density',(#1218),#2011);
#1234=REPRESENTATION('material name',(#1239),#2012);
#1235=REPRESENTATION('density',(#1219),#2012);
#1236=DESCRIPTIVE_REPRESENTATION_ITEM('Stahl','Stahl');
#1237=DESCRIPTIVE_REPRESENTATION_ITEM('Stahl','Stahl');
#1238=DESCRIPTIVE_REPRESENTATION_ITEM('Stahl','Stahl');
#1239=DESCRIPTIVE_REPRESENTATION_ITEM('Stahl','Stahl');
#1240=PROPERTY_DEFINITION('material property','material name',#2039);
#1241=PROPERTY_DEFINITION('material property','density of part',#2039);
#1242=PROPERTY_DEFINITION('material property','material name',#2040);
#1243=PROPERTY_DEFINITION('material property','density of part',#2040);
#1244=PROPERTY_DEFINITION('material property','material name',#2041);
#1245=PROPERTY_DEFINITION('material property','density of part',#2041);
#1246=PROPERTY_DEFINITION('material property','material name',#2042);
#1247=PROPERTY_DEFINITION('material property','density of part',#2042);
#1248=AXIS2_PLACEMENT_3D('',#1663,#1339,#1340);
#1249=AXIS2_PLACEMENT_3D('',#1664,#1341,#1342);
#1250=AXIS2_PLACEMENT_3D('',#1665,#1343,#1344);
#1251=AXIS2_PLACEMENT_3D('',#1674,#1349,#1350);
#1252=AXIS2_PLACEMENT_3D('',#1680,#1354,#1355);
#1253=AXIS2_PLACEMENT_3D('',#1686,#1359,#1360);
#1254=AXIS2_PLACEMENT_3D('',#1689,#1363,#1364);
#1255=AXIS2_PLACEMENT_3D('',#1690,#1365,#1366);
#1256=AXIS2_PLACEMENT_3D('',#1691,#1367,#1368);
#1257=AXIS2_PLACEMENT_3D('',#1692,#1369,#1370);
#1258=AXIS2_PLACEMENT_3D('',#1701,#1375,#1376);
#1259=AXIS2_PLACEMENT_3D('',#1707,#1380,#1381);
#1260=AXIS2_PLACEMENT_3D('',#1713,#1385,#1386);
#1261=AXIS2_PLACEMENT_3D('',#1719,#1390,#1391);
#1262=AXIS2_PLACEMENT_3D('',#1721,#1392,#1393);
#1263=AXIS2_PLACEMENT_3D('',#1723,#1394,#1395);
#1264=AXIS2_PLACEMENT_3D('',#1725,#1397,#1398);
#1265=AXIS2_PLACEMENT_3D('',#1731,#1402,#1403);
#1266=AXIS2_PLACEMENT_3D('',#1737,#1407,#1408);
#1267=AXIS2_PLACEMENT_3D('',#1738,#1409,#1410);
#1268=AXIS2_PLACEMENT_3D('',#1739,#1411,#1412);
#1269=AXIS2_PLACEMENT_3D('',#1740,#1413,#1414);
#1270=AXIS2_PLACEMENT_3D('',#1749,#1419,#1420);
#1271=AXIS2_PLACEMENT_3D('',#1755,#1424,#1425);
#1272=AXIS2_PLACEMENT_3D('',#1761,#1429,#1430);
#1273=AXIS2_PLACEMENT_3D('',#1764,#1433,#1434);
#1274=AXIS2_PLACEMENT_3D('',#1765,#1435,#1436);
#1275=AXIS2_PLACEMENT_3D('',#1766,#1437,#1438);
#1276=AXIS2_PLACEMENT_3D('',#1767,#1439,#1440);
#1277=AXIS2_PLACEMENT_3D('',#1770,#1441,#1442);
#1278=AXIS2_PLACEMENT_3D('',#1774,#1444,#1445);
#1279=AXIS2_PLACEMENT_3D('',#1776,#1447,#1448);
#1280=AXIS2_PLACEMENT_3D('',#1778,#1449,#1450);
#1281=AXIS2_PLACEMENT_3D('',#1782,#1452,#1453);
#1282=AXIS2_PLACEMENT_3D('',#1784,#1454,#1455);
#1283=AXIS2_PLACEMENT_3D('',#1785,#1456,#1457);
#1284=AXIS2_PLACEMENT_3D('',#1786,#1458,#1459);
#1285=AXIS2_PLACEMENT_3D('',#1797,#1465,#1466);
#1286=AXIS2_PLACEMENT_3D('',#1798,#1467,#1468);
#1287=AXIS2_PLACEMENT_3D('',#1801,#1470,#1471);
#1288=AXIS2_PLACEMENT_3D('',#1802,#1472,#1473);
#1289=AXIS2_PLACEMENT_3D('',#1806,#1476,#1477);
#1290=AXIS2_PLACEMENT_3D('',#1807,#1478,#1479);
#1291=AXIS2_PLACEMENT_3D('',#1817,#1484,#1485);
#1292=AXIS2_PLACEMENT_3D('',#1825,#1489,#1490);
#1293=AXIS2_PLACEMENT_3D('',#1833,#1495,#1496);
#1294=AXIS2_PLACEMENT_3D('',#1836,#1498,#1499);
#1295=AXIS2_PLACEMENT_3D('',#1837,#1500,#1501);
#1296=AXIS2_PLACEMENT_3D('',#1846,#1506,#1507);
#1297=AXIS2_PLACEMENT_3D('',#1852,#1511,#1512);
#1298=AXIS2_PLACEMENT_3D('',#1858,#1516,#1517);
#1299=AXIS2_PLACEMENT_3D('',#1864,#1521,#1522);
#1300=AXIS2_PLACEMENT_3D('',#1873,#1528,#1529);
#1301=AXIS2_PLACEMENT_3D('',#1879,#1533,#1534);
#1302=AXIS2_PLACEMENT_3D('',#1885,#1538,#1539);
#1303=AXIS2_PLACEMENT_3D('',#1891,#1543,#1544);
#1304=AXIS2_PLACEMENT_3D('',#1893,#1546,#1547);
#1305=AXIS2_PLACEMENT_3D('',#1899,#1551,#1552);
#1306=AXIS2_PLACEMENT_3D('',#1901,#1554,#1555);
#1307=AXIS2_PLACEMENT_3D('',#1906,#1559,#1560);
#1308=AXIS2_PLACEMENT_3D('',#1910,#1563,#1564);
#1309=AXIS2_PLACEMENT_3D('',#1911,#1565,#1566);
#1310=AXIS2_PLACEMENT_3D('',#1913,#1568,#1569);
#1311=AXIS2_PLACEMENT_3D('',#1917,#1572,#1573);
#1312=AXIS2_PLACEMENT_3D('',#1919,#1575,#1576);
#1313=AXIS2_PLACEMENT_3D('',#1922,#1579,#1580);
#1314=AXIS2_PLACEMENT_3D('',#1924,#1581,#1582);
#1315=AXIS2_PLACEMENT_3D('',#1926,#1584,#1585);
#1316=AXIS2_PLACEMENT_3D('',#1930,#1588,#1589);
#1317=AXIS2_PLACEMENT_3D('',#1934,#1592,#1593);
#1318=AXIS2_PLACEMENT_3D('',#1938,#1596,#1597);
#1319=AXIS2_PLACEMENT_3D('',#1939,#1598,#1599);
#1320=AXIS2_PLACEMENT_3D('',#1940,#1600,#1601);
#1321=AXIS2_PLACEMENT_3D('',#1941,#1602,#1603);
#1322=AXIS2_PLACEMENT_3D('',#1942,#1604,#1605);
#1323=AXIS2_PLACEMENT_3D('',#1944,#1606,#1607);
#1324=AXIS2_PLACEMENT_3D('',#1947,#1609,#1610);
#1325=AXIS2_PLACEMENT_3D('',#1948,#1611,#1612);
#1326=AXIS2_PLACEMENT_3D('',#1957,#1617,#1618);
#1327=AXIS2_PLACEMENT_3D('',#1963,#1622,#1623);
#1328=AXIS2_PLACEMENT_3D('',#1969,#1627,#1628);
#1329=AXIS2_PLACEMENT_3D('',#1975,#1632,#1633);
#1330=AXIS2_PLACEMENT_3D('',#1981,#1637,#1638);
#1331=AXIS2_PLACEMENT_3D('',#1987,#1642,#1643);
#1332=AXIS2_PLACEMENT_3D('',#1993,#1647,#1648);
#1333=AXIS2_PLACEMENT_3D('',#1996,#1651,#1652);
#1334=AXIS2_PLACEMENT_3D('',#1997,#1653,#1654);
#1335=AXIS2_PLACEMENT_3D('',#1998,#1655,#1656);
#1336=AXIS2_PLACEMENT_3D('',#1999,#1657,#1658);
#1337=AXIS2_PLACEMENT_3D('',#2000,#1659,#1660);
#1338=AXIS2_PLACEMENT_3D('',#2001,#1661,#1662);
#1339=DIRECTION('axis',(0.,0.,1.));
#1340=DIRECTION('refdir',(1.,0.,0.));
#1341=DIRECTION('axis',(0.,0.,1.));
#1342=DIRECTION('refdir',(1.,0.,0.));
#1343=DIRECTION('center_axis',(0.,1.,0.));
#1344=DIRECTION('ref_axis',(-1.,0.,0.));
#1345=DIRECTION('',(-1.,0.,0.));
#1346=DIRECTION('',(0.,0.,1.));
#1347=DIRECTION('',(-1.,0.,0.));
#1348=DIRECTION('',(0.,0.,1.));
#1349=DIRECTION('center_axis',(1.,0.,0.));
#1350=DIRECTION('ref_axis',(0.,1.,0.));
#1351=DIRECTION('',(0.,1.,0.));
#1352=DIRECTION('',(0.,1.,0.));
#1353=DIRECTION('',(0.,0.,1.));
#1354=DIRECTION('center_axis',(0.,-1.,0.));
#1355=DIRECTION('ref_axis',(1.,0.,0.));
#1356=DIRECTION('',(1.,0.,0.));
#1357=DIRECTION('',(1.,0.,0.));
#1358=DIRECTION('',(0.,0.,1.));
#1359=DIRECTION('center_axis',(-1.,0.,0.));
#1360=DIRECTION('ref_axis',(0.,-1.,0.));
#1361=DIRECTION('',(0.,-1.,0.));
#1362=DIRECTION('',(0.,-1.,0.));
#1363=DIRECTION('center_axis',(0.,0.,1.));
#1364=DIRECTION('ref_axis',(1.,0.,0.));
#1365=DIRECTION('center_axis',(0.,0.,1.));
#1366=DIRECTION('ref_axis',(1.,0.,0.));
#1367=DIRECTION('axis',(0.,0.,1.));
#1368=DIRECTION('refdir',(1.,0.,0.));
#1369=DIRECTION('center_axis',(-2.380840419772E-16,1.,0.));
#1370=DIRECTION('ref_axis',(-1.,-2.380840419772E-16,0.));
#1371=DIRECTION('',(-1.,-2.380840419772E-16,0.));
#1372=DIRECTION('',(0.,0.,1.));
#1373=DIRECTION('',(-1.,-2.380840419772E-16,0.));
#1374=DIRECTION('',(0.,0.,1.));
#1375=DIRECTION('center_axis',(-0.522312079091613,0.852754414843451,0.));
#1376=DIRECTION('ref_axis',(-0.852754414843451,-0.522312079091613,0.));
#1377=DIRECTION('',(-0.852754414843451,-0.522312079091613,0.));
#1378=DIRECTION('',(-0.852754414843451,-0.522312079091613,0.));
#1379=DIRECTION('',(0.,0.,1.));
#1380=DIRECTION('center_axis',(-0.522312079091613,-0.852754414843451,0.));
#1381=DIRECTION('ref_axis',(0.852754414843451,-0.522312079091613,0.));
#1382=DIRECTION('',(0.852754414843451,-0.522312079091613,0.));
#1383=DIRECTION('',(0.852754414843451,-0.522312079091613,0.));
#1384=DIRECTION('',(0.,0.,1.));
#1385=DIRECTION('center_axis',(-2.380840419772E-16,-1.,0.));
#1386=DIRECTION('ref_axis',(1.,-2.380840419772E-16,0.));
#1387=DIRECTION('',(1.,-2.380840419772E-16,0.));
#1388=DIRECTION('',(1.,-2.380840419772E-16,0.));
#1389=DIRECTION('',(0.,0.,1.));
#1390=DIRECTION('center_axis',(0.,0.,1.));
#1391=DIRECTION('ref_axis',(0.,1.,0.));
#1392=DIRECTION('center_axis',(0.,0.,-1.));
#1393=DIRECTION('ref_axis',(0.,1.,0.));
#1394=DIRECTION('center_axis',(0.,0.,-1.));
#1395=DIRECTION('ref_axis',(0.,1.,0.));
#1396=DIRECTION('',(0.,0.,1.));
#1397=DIRECTION('center_axis',(0.699928582359656,0.714212839142508,0.));
#1398=DIRECTION('ref_axis',(-0.714212839142508,0.699928582359656,0.));
#1399=DIRECTION('',(-0.714212839142508,0.699928582359656,0.));
#1400=DIRECTION('',(-0.714212839142508,0.699928582359656,0.));
#1401=DIRECTION('',(0.,0.,1.));
#1402=DIRECTION('center_axis',(0.699928582359656,-0.714212839142508,0.));
#1403=DIRECTION('ref_axis',(0.714212839142508,0.699928582359656,0.));
#1404=DIRECTION('',(0.714212839142508,0.699928582359656,0.));
#1405=DIRECTION('',(0.714212839142508,0.699928582359656,0.));
#1406=DIRECTION('',(0.,0.,1.));
#1407=DIRECTION('center_axis',(0.,0.,1.));
#1408=DIRECTION('ref_axis',(-0.699928582359652,0.714212839142512,0.));
#1409=DIRECTION('center_axis',(0.,0.,-1.));
#1410=DIRECTION('ref_axis',(-0.699928582359652,0.714212839142512,0.));
#1411=DIRECTION('center_axis',(0.,0.,-1.));
#1412=DIRECTION('ref_axis',(-0.699928582359652,0.714212839142512,0.));
#1413=DIRECTION('center_axis',(0.,1.,0.));
#1414=DIRECTION('ref_axis',(-1.,0.,0.));
#1415=DIRECTION('',(-1.,0.,0.));
#1416=DIRECTION('',(0.,0.,1.));
#1417=DIRECTION('',(-1.,0.,0.));
#1418=DIRECTION('',(0.,0.,1.));
#1419=DIRECTION('center_axis',(1.,0.,0.));
#1420=DIRECTION('ref_axis',(0.,1.,0.));
#1421=DIRECTION('',(0.,1.,0.));
#1422=DIRECTION('',(0.,1.,0.));
#1423=DIRECTION('',(0.,0.,1.));
#1424=DIRECTION('center_axis',(0.,-1.,0.));
#1425=DIRECTION('ref_axis',(1.,0.,0.));
#1426=DIRECTION('',(1.,0.,0.));
#1427=DIRECTION('',(1.,0.,0.));
#1428=DIRECTION('',(0.,0.,1.));
#1429=DIRECTION('center_axis',(-1.,0.,0.));
#1430=DIRECTION('ref_axis',(0.,-1.,0.));
#1431=DIRECTION('',(0.,-1.,0.));
#1432=DIRECTION('',(0.,-1.,0.));
#1433=DIRECTION('center_axis',(0.,0.,1.));
#1434=DIRECTION('ref_axis',(1.,0.,0.));
#1435=DIRECTION('center_axis',(0.,0.,1.));
#1436=DIRECTION('ref_axis',(1.,0.,0.));
#1437=DIRECTION('axis',(0.,0.,1.));
#1438=DIRECTION('refdir',(1.,0.,0.));
#1439=DIRECTION('center_axis',(0.,0.,-1.));
#1440=DIRECTION('ref_axis',(0.812403840463596,-0.58309518948453,0.));
#1441=DIRECTION('center_axis',(0.,0.,-1.));
#1442=DIRECTION('ref_axis',(0.812403840463596,-0.58309518948453,0.));
#1443=DIRECTION('',(0.,0.,-1.));
#1444=DIRECTION('center_axis',(0.,0.,-1.));
#1445=DIRECTION('ref_axis',(0.812403840463596,-0.58309518948453,0.));
#1446=DIRECTION('',(0.,0.,1.));
#1447=DIRECTION('center_axis',(0.,0.,-1.));
#1448=DIRECTION('ref_axis',(-1.,0.,0.));
#1449=DIRECTION('center_axis',(0.,0.,-1.));
#1450=DIRECTION('ref_axis',(-1.,0.,0.));
#1451=DIRECTION('',(0.,0.,1.));
#1452=DIRECTION('center_axis',(0.,0.,-1.));
#1453=DIRECTION('ref_axis',(-1.,0.,0.));
#1454=DIRECTION('center_axis',(0.,0.,1.));
#1455=DIRECTION('ref_axis',(-1.,0.,0.));
#1456=DIRECTION('center_axis',(0.,0.,-1.));
#1457=DIRECTION('ref_axis',(-1.,0.,0.));
#1458=DIRECTION('center_axis',(0.,0.,1.));
#1459=DIRECTION('ref_axis',(-6.12323399573677E-17,-1.,0.));
#1460=DIRECTION('',(-6.12323399573677E-17,-1.,0.));
#1461=DIRECTION('',(-1.,6.16790569236198E-17,0.));
#1462=DIRECTION('',(6.12323399573677E-17,1.,0.));
#1463=DIRECTION('',(-1.,6.16790569236198E-17,0.));
#1464=DIRECTION('',(-6.12323399573677E-17,-1.,0.));
#1465=DIRECTION('center_axis',(0.,0.,-1.));
#1466=DIRECTION('ref_axis',(0.812403840463596,0.58309518948453,0.));
#1467=DIRECTION('center_axis',(0.,0.,1.));
#1468=DIRECTION('ref_axis',(0.812403840463596,0.58309518948453,0.));
#1469=DIRECTION('',(0.,0.,-1.));
#1470=DIRECTION('center_axis',(0.,0.,-1.));
#1471=DIRECTION('ref_axis',(0.812403840463596,0.58309518948453,0.));
#1472=DIRECTION('center_axis',(0.,0.,1.));
#1473=DIRECTION('ref_axis',(-1.,0.,0.));
#1474=DIRECTION('',(-6.12323399573677E-17,-1.,0.));
#1475=DIRECTION('',(-6.16790569236198E-17,-1.,0.));
#1476=DIRECTION('center_axis',(0.,0.,1.));
#1477=DIRECTION('ref_axis',(-1.,0.,0.));
#1478=DIRECTION('center_axis',(-1.,6.12323399573677E-17,0.));
#1479=DIRECTION('ref_axis',(-6.12323399573677E-17,-1.,0.));
#1480=DIRECTION('',(-7.7915084342979E-33,-1.2724498916296E-16,1.));
#1481=DIRECTION('',(-6.12323399573677E-17,-1.,0.));
#1482=DIRECTION('',(0.,0.,-1.));
#1483=DIRECTION('',(6.12323399573677E-17,1.,0.));
#1484=DIRECTION('center_axis',(-1.,6.12323399573677E-17,0.));
#1485=DIRECTION('ref_axis',(-5.43852429378757E-32,-8.88178419700126E-16,
1.));
#1486=DIRECTION('',(-9.06420715631261E-33,-1.48029736616688E-16,-1.));
#1487=DIRECTION('',(6.12323399573677E-17,1.,0.));
#1488=DIRECTION('',(1.81284143126252E-32,2.96059473233375E-16,1.));
#1489=DIRECTION('center_axis',(-1.,6.12323399573677E-17,0.));
#1490=DIRECTION('ref_axis',(-6.12323399573677E-17,-1.,2.66453525910037E-15));
#1491=DIRECTION('',(6.12323399573677E-17,1.,0.));
#1492=DIRECTION('',(0.,0.,1.));
#1493=DIRECTION('',(-6.12323399573677E-17,-1.,0.));
#1494=DIRECTION('',(0.,0.,-1.));
#1495=DIRECTION('center_axis',(0.,0.,-1.));
#1496=DIRECTION('ref_axis',(-1.,0.,0.));
#1497=DIRECTION('',(0.,0.,-1.));
#1498=DIRECTION('center_axis',(0.,0.,1.));
#1499=DIRECTION('ref_axis',(-1.,0.,0.));
#1500=DIRECTION('center_axis',(0.707106781186548,0.707106781186548,0.));
#1501=DIRECTION('ref_axis',(0.,0.,-1.));
#1502=DIRECTION('',(0.,0.,1.));
#1503=DIRECTION('',(0.707106781186548,-0.707106781186548,0.));
#1504=DIRECTION('',(0.,0.,-1.));
#1505=DIRECTION('',(-0.577350269189626,0.577350269189626,-0.577350269189626));
#1506=DIRECTION('center_axis',(0.707106781186548,0.,-0.707106781186548));
#1507=DIRECTION('ref_axis',(-0.707106781186548,0.,-0.707106781186548));
#1508=DIRECTION('',(0.,1.,0.));
#1509=DIRECTION('',(-6.16790569236198E-17,-1.,0.));
#1510=DIRECTION('',(-0.577350269189626,-0.577350269189626,-0.577350269189626));
#1511=DIRECTION('center_axis',(0.707106781186546,-0.707106781186549,0.));
#1512=DIRECTION('ref_axis',(0.,0.,-1.));
#1513=DIRECTION('',(0.,0.,1.));
#1514=DIRECTION('',(-0.707106781186549,-0.707106781186546,0.));
#1515=DIRECTION('',(0.,0.,-1.));
#1516=DIRECTION('center_axis',(0.,-1.,0.));
#1517=DIRECTION('ref_axis',(0.,0.,-1.));
#1518=DIRECTION('',(-1.,6.16790569236198E-17,0.));
#1519=DIRECTION('',(0.,0.,1.));
#1520=DIRECTION('',(-1.,6.16790569236198E-17,0.));
#1521=DIRECTION('center_axis',(0.,0.,1.));
#1522=DIRECTION('ref_axis',(-6.12323399573677E-17,-1.,0.));
#1523=DIRECTION('',(-1.,0.,0.));
#1524=DIRECTION('',(0.,1.,0.));
#1525=DIRECTION('',(-1.,6.16790569236198E-17,0.));
#1526=DIRECTION('',(-1.,6.16790569236198E-17,0.));
#1527=DIRECTION('',(6.12323399573677E-17,1.,0.));
#1528=DIRECTION('center_axis',(0.,1.,0.));
#1529=DIRECTION('ref_axis',(0.,0.,1.));
#1530=DIRECTION('',(-1.,6.16790569236198E-17,0.));
#1531=DIRECTION('',(0.,0.,-1.));
#1532=DIRECTION('',(-1.,6.16790569236198E-17,0.));
#1533=DIRECTION('center_axis',(0.,1.,0.));
#1534=DIRECTION('ref_axis',(0.,0.,1.));
#1535=DIRECTION('',(-1.,0.,0.));
#1536=DIRECTION('',(1.,0.,0.));
#1537=DIRECTION('',(0.,0.,-1.));
#1538=DIRECTION('center_axis',(0.,0.,-1.));
#1539=DIRECTION('ref_axis',(6.12323399573677E-17,1.,0.));
#1540=DIRECTION('',(-6.16790569236198E-17,-1.,0.));
#1541=DIRECTION('',(-1.,6.16790569236198E-17,0.));
#1542=DIRECTION('',(1.,0.,0.));
#1543=DIRECTION('center_axis',(0.,0.,-1.));
#1544=DIRECTION('ref_axis',(6.12323399573677E-17,1.,0.));
#1545=DIRECTION('',(-6.12323399573677E-17,-1.,0.));
#1546=DIRECTION('center_axis',(0.,0.,-1.));
#1547=DIRECTION('ref_axis',(6.12323399573677E-17,1.,0.));
#1548=DIRECTION('',(-6.16790569236198E-17,-1.,0.));
#1549=DIRECTION('',(1.,0.,0.));
#1550=DIRECTION('',(-1.,6.16790569236198E-17,0.));
#1551=DIRECTION('center_axis',(0.,-1.,0.));
#1552=DIRECTION('ref_axis',(0.,0.,-1.));
#1553=DIRECTION('',(0.,0.,1.));
#1554=DIRECTION('center_axis',(-1.,6.16790569236198E-17,0.));
#1555=DIRECTION('ref_axis',(0.,0.,1.));
#1556=DIRECTION('',(7.7915084342979E-33,1.2724498916296E-16,-1.));
#1557=DIRECTION('',(0.,0.,1.));
#1558=DIRECTION('',(6.12323399573677E-17,1.,0.));
#1559=DIRECTION('center_axis',(0.,-1.,0.));
#1560=DIRECTION('ref_axis',(0.,0.,-1.));
#1561=DIRECTION('',(0.,0.,1.));
#1562=DIRECTION('',(-1.,0.,0.));
#1563=DIRECTION('center_axis',(0.,1.,1.2724498916296E-16));
#1564=DIRECTION('ref_axis',(-7.7915084342979E-33,-1.2724498916296E-16,1.));
#1565=DIRECTION('center_axis',(0.,-1.,0.));
#1566=DIRECTION('ref_axis',(0.,0.,-1.));
#1567=DIRECTION('',(-1.,6.16790569236198E-17,0.));
#1568=DIRECTION('center_axis',(0.,0.,1.));
#1569=DIRECTION('ref_axis',(-6.12323399573677E-17,-1.,0.));
#1570=DIRECTION('',(-1.,6.16790569236198E-17,0.));
#1571=DIRECTION('',(0.,-1.,0.));
#1572=DIRECTION('center_axis',(0.,1.,0.));
#1573=DIRECTION('ref_axis',(0.,0.,1.));
#1574=DIRECTION('',(0.,0.,-1.));
#1575=DIRECTION('center_axis',(0.,0.,-1.));
#1576=DIRECTION('ref_axis',(6.12323399573677E-17,1.,0.));
#1577=DIRECTION('',(-6.16790569236198E-17,-1.,0.));
#1578=DIRECTION('',(-6.16790569236198E-17,-1.,0.));
#1579=DIRECTION('center_axis',(1.,0.,0.));
#1580=DIRECTION('ref_axis',(0.,-1.,2.66453525910037E-15));
#1581=DIRECTION('center_axis',(-1.,6.12323399573677E-17,0.));
#1582=DIRECTION('ref_axis',(-6.12323399573677E-17,-1.,2.66453525910037E-15));
#1583=DIRECTION('',(1.,0.,0.));
#1584=DIRECTION('center_axis',(0.,1.,-2.96059473233375E-16));
#1585=DIRECTION('ref_axis',(1.81284143126252E-32,2.96059473233375E-16,1.));
#1586=DIRECTION('',(1.81284143126252E-32,2.96059473233375E-16,1.));
#1587=DIRECTION('',(1.,0.,0.));
#1588=DIRECTION('center_axis',(0.,0.,-1.));
#1589=DIRECTION('ref_axis',(6.12323399573677E-17,1.,0.));
#1590=DIRECTION('',(6.12323399573677E-17,1.,0.));
#1591=DIRECTION('',(1.,0.,0.));
#1592=DIRECTION('center_axis',(0.,-1.,1.48029736616688E-16));
#1593=DIRECTION('ref_axis',(-9.06420715631261E-33,-1.48029736616688E-16,
-1.));
#1594=DIRECTION('',(-9.06420715631261E-33,-1.48029736616688E-16,-1.));
#1595=DIRECTION('',(1.,0.,0.));
#1596=DIRECTION('center_axis',(1.,0.,0.));
#1597=DIRECTION('ref_axis',(0.,-8.88178419700126E-16,1.));
#1598=DIRECTION('center_axis',(-1.,6.12323399573677E-17,0.));
#1599=DIRECTION('ref_axis',(-5.43852429378757E-32,-8.88178419700126E-16,
1.));
#1600=DIRECTION('center_axis',(-1.,0.,0.));
#1601=DIRECTION('ref_axis',(0.,0.,1.));
#1602=DIRECTION('axis',(0.,0.,1.));
#1603=DIRECTION('refdir',(1.,0.,0.));
#1604=DIRECTION('center_axis',(0.,0.,-1.));
#1605=DIRECTION('ref_axis',(-1.,0.,0.));
#1606=DIRECTION('center_axis',(0.,0.,1.));
#1607=DIRECTION('ref_axis',(-1.,0.,0.));
#1608=DIRECTION('',(0.,0.,-1.));
#1609=DIRECTION('center_axis',(0.,0.,1.));
#1610=DIRECTION('ref_axis',(-1.,0.,0.));
#1611=DIRECTION('center_axis',(0.,-0.707106781186547,-0.707106781186548));
#1612=DIRECTION('ref_axis',(0.,0.707106781186548,-0.707106781186547));
#1613=DIRECTION('',(-4.32978028117747E-17,-0.707106781186548,0.707106781186547));
#1614=DIRECTION('',(1.,0.,0.));
#1615=DIRECTION('',(0.,0.707106781186548,-0.707106781186547));
#1616=DIRECTION('',(1.,0.,0.));
#1617=DIRECTION('center_axis',(0.,0.,1.));
#1618=DIRECTION('ref_axis',(0.,-1.,0.));
#1619=DIRECTION('',(6.12323399573677E-17,1.,0.));
#1620=DIRECTION('',(1.,0.,0.));
#1621=DIRECTION('',(0.,1.,0.));
#1622=DIRECTION('center_axis',(0.,-1.,1.70803542250024E-15));
#1623=DIRECTION('ref_axis',(0.,-1.70803542250024E-15,-1.));
#1624=DIRECTION('',(1.04587005649761E-31,1.70803542250024E-15,1.));
#1625=DIRECTION('',(1.,0.,0.));
#1626=DIRECTION('',(0.,-1.70803542250024E-15,-1.));
#1627=DIRECTION('center_axis',(0.,0.,1.));
#1628=DIRECTION('ref_axis',(0.,-1.,0.));
#1629=DIRECTION('',(6.12323399573677E-17,1.,0.));
#1630=DIRECTION('',(-1.,0.,0.));
#1631=DIRECTION('',(0.,-1.,0.));
#1632=DIRECTION('center_axis',(0.,1.,1.70803542250024E-15));
#1633=DIRECTION('ref_axis',(0.,-1.70803542250024E-15,1.));
#1634=DIRECTION('',(1.04587005649761E-31,1.70803542250024E-15,-1.));
#1635=DIRECTION('',(1.,0.,0.));
#1636=DIRECTION('',(0.,1.70803542250024E-15,-1.));
#1637=DIRECTION('center_axis',(0.,0.,1.));
#1638=DIRECTION('ref_axis',(0.,-1.,0.));
#1639=DIRECTION('',(6.12323399573677E-17,1.,0.));
#1640=DIRECTION('',(1.,0.,0.));
#1641=DIRECTION('',(0.,1.,0.));
#1642=DIRECTION('center_axis',(0.,0.707106781186548,-0.707106781186547));
#1643=DIRECTION('ref_axis',(0.,0.707106781186547,0.707106781186548));
#1644=DIRECTION('',(-4.32978028117746E-17,-0.707106781186547,-0.707106781186548));
#1645=DIRECTION('',(1.,0.,0.));
#1646=DIRECTION('',(0.,-0.707106781186547,-0.707106781186548));
#1647=DIRECTION('center_axis',(0.,0.,-1.));
#1648=DIRECTION('ref_axis',(0.,1.,0.));
#1649=DIRECTION('',(-6.12323399573677E-17,-1.,0.));
#1650=DIRECTION('',(0.,-1.,0.));
#1651=DIRECTION('center_axis',(-1.,0.,0.));
#1652=DIRECTION('ref_axis',(0.,-1.,0.));
#1653=DIRECTION('center_axis',(1.,-6.12323399573677E-17,0.));
#1654=DIRECTION('ref_axis',(0.,0.,-1.));
#1655=DIRECTION('',(0.,0.,1.));
#1656=DIRECTION('',(1.,0.,0.));
#1657=DIRECTION('',(0.,0.,1.));
#1658=DIRECTION('',(1.,0.,0.));
#1659=DIRECTION('',(0.,0.,1.));
#1660=DIRECTION('',(1.,0.,0.));
#1661=DIRECTION('',(0.,0.,1.));
#1662=DIRECTION('',(1.,0.,0.));
#1663=CARTESIAN_POINT('',(0.,0.,0.));
#1664=CARTESIAN_POINT('',(0.,0.,0.));
#1665=CARTESIAN_POINT('Origin',(165.,54.2,27.6));
#1666=CARTESIAN_POINT('',(165.,54.2,27.6));
#1667=CARTESIAN_POINT('',(0.,54.2,27.6));
#1668=CARTESIAN_POINT('',(165.,54.2,27.6));
#1669=CARTESIAN_POINT('',(0.,54.2,37.2));
#1670=CARTESIAN_POINT('',(0.,54.2,27.6));
#1671=CARTESIAN_POINT('',(165.,54.2,37.2));
#1672=CARTESIAN_POINT('',(165.,54.2,37.2));
#1673=CARTESIAN_POINT('',(165.,54.2,27.6));
#1674=CARTESIAN_POINT('Origin',(165.,0.,27.6));
#1675=CARTESIAN_POINT('',(165.,0.,27.6));
#1676=CARTESIAN_POINT('',(165.,0.,27.6));
#1677=CARTESIAN_POINT('',(165.,0.,37.2));
#1678=CARTESIAN_POINT('',(165.,0.,37.2));
#1679=CARTESIAN_POINT('',(165.,0.,27.6));
#1680=CARTESIAN_POINT('Origin',(0.,0.,27.6));
#1681=CARTESIAN_POINT('',(0.,0.,27.6));
#1682=CARTESIAN_POINT('',(0.,0.,27.6));
#1683=CARTESIAN_POINT('',(0.,0.,37.2));
#1684=CARTESIAN_POINT('',(0.,0.,37.2));
#1685=CARTESIAN_POINT('',(0.,0.,27.6));
#1686=CARTESIAN_POINT('Origin',(0.,54.2,27.6));
#1687=CARTESIAN_POINT('',(0.,54.2,27.6));
#1688=CARTESIAN_POINT('',(0.,54.2,37.2));
#1689=CARTESIAN_POINT('Origin',(82.5,27.1,37.2));
#1690=CARTESIAN_POINT('Origin',(82.5,27.1,27.6));
#1691=CARTESIAN_POINT('',(0.,0.,0.));
#1692=CARTESIAN_POINT('Origin',(74.5,22.2,0.));
#1693=CARTESIAN_POINT('',(74.5,22.2,0.));
#1694=CARTESIAN_POINT('',(65.1736880354923,22.2,0.));
#1695=CARTESIAN_POINT('',(65.1736880354923,22.2,0.));
#1696=CARTESIAN_POINT('',(65.1736880354923,22.2,2.6));
#1697=CARTESIAN_POINT('',(65.1736880354923,22.2,0.));
#1698=CARTESIAN_POINT('',(74.5,22.2,2.6));
#1699=CARTESIAN_POINT('',(65.1736880354923,22.2,2.6));
#1700=CARTESIAN_POINT('',(74.5,22.2,0.));
#1701=CARTESIAN_POINT('Origin',(82.5,27.1,0.));
#1702=CARTESIAN_POINT('',(82.5,27.1,0.));
#1703=CARTESIAN_POINT('',(74.5,22.2,0.));
#1704=CARTESIAN_POINT('',(82.5,27.1,2.6));
#1705=CARTESIAN_POINT('',(74.5,22.2,2.6));
#1706=CARTESIAN_POINT('',(82.5,27.1,0.));
#1707=CARTESIAN_POINT('Origin',(74.5,32.,0.));
#1708=CARTESIAN_POINT('',(74.5,32.,0.));
#1709=CARTESIAN_POINT('',(74.5,32.,0.));
#1710=CARTESIAN_POINT('',(74.5,32.,2.6));
#1711=CARTESIAN_POINT('',(74.5,32.,2.6));
#1712=CARTESIAN_POINT('',(74.5,32.,0.));
#1713=CARTESIAN_POINT('Origin',(65.1736880354923,32.,0.));
#1714=CARTESIAN_POINT('',(65.1736880354923,32.,0.));
#1715=CARTESIAN_POINT('',(65.1736880354923,32.,0.));
#1716=CARTESIAN_POINT('',(65.1736880354923,32.,2.6));
#1717=CARTESIAN_POINT('',(65.1736880354923,32.,2.6));
#1718=CARTESIAN_POINT('',(65.1736880354923,32.,0.));
#1719=CARTESIAN_POINT('Origin',(65.1736880354923,30.5,0.));
#1720=CARTESIAN_POINT('',(64.1237951619528,29.4286807412862,0.));
#1721=CARTESIAN_POINT('Origin',(65.1736880354923,30.5,0.));
#1722=CARTESIAN_POINT('',(64.1237951619528,29.4286807412862,2.6));
#1723=CARTESIAN_POINT('Origin',(65.1736880354923,30.5,2.6));
#1724=CARTESIAN_POINT('',(64.1237951619528,29.4286807412862,0.));
#1725=CARTESIAN_POINT('Origin',(66.5,27.1,0.));
#1726=CARTESIAN_POINT('',(66.5,27.1,0.));
#1727=CARTESIAN_POINT('',(64.1237951619528,29.4286807412862,0.));
#1728=CARTESIAN_POINT('',(66.5,27.1,2.6));
#1729=CARTESIAN_POINT('',(64.1237951619528,29.4286807412862,2.6));
#1730=CARTESIAN_POINT('',(66.5,27.1,0.));
#1731=CARTESIAN_POINT('Origin',(64.1237951619528,24.7713192587138,0.));
#1732=CARTESIAN_POINT('',(64.1237951619528,24.7713192587138,0.));
#1733=CARTESIAN_POINT('',(64.1237951619528,24.7713192587138,0.));
#1734=CARTESIAN_POINT('',(64.1237951619528,24.7713192587138,2.6));
#1735=CARTESIAN_POINT('',(64.1237951619528,24.7713192587138,2.6));
#1736=CARTESIAN_POINT('',(64.1237951619528,24.7713192587138,0.));
#1737=CARTESIAN_POINT('Origin',(65.1736880354923,23.7,0.));
#1738=CARTESIAN_POINT('Origin',(65.1736880354923,23.7,0.));
#1739=CARTESIAN_POINT('Origin',(65.1736880354923,23.7,2.6));
#1740=CARTESIAN_POINT('Origin',(96.3806339739615,37.85,0.));
#1741=CARTESIAN_POINT('',(96.3806339739615,37.85,0.));
#1742=CARTESIAN_POINT('',(46.3806339739615,37.85,0.));
#1743=CARTESIAN_POINT('',(96.3806339739615,37.85,0.));
#1744=CARTESIAN_POINT('',(46.3806339739615,37.85,2.6));
#1745=CARTESIAN_POINT('',(46.3806339739615,37.85,0.));
#1746=CARTESIAN_POINT('',(96.3806339739615,37.85,2.6));
#1747=CARTESIAN_POINT('',(96.3806339739615,37.85,2.6));
#1748=CARTESIAN_POINT('',(96.3806339739615,37.85,0.));
#1749=CARTESIAN_POINT('Origin',(96.3806339739615,16.35,0.));
#1750=CARTESIAN_POINT('',(96.3806339739615,16.35,0.));
#1751=CARTESIAN_POINT('',(96.3806339739615,16.35,0.));
#1752=CARTESIAN_POINT('',(96.3806339739615,16.35,2.6));
#1753=CARTESIAN_POINT('',(96.3806339739615,16.35,2.6));
#1754=CARTESIAN_POINT('',(96.3806339739615,16.35,0.));
#1755=CARTESIAN_POINT('Origin',(46.3806339739615,16.35,0.));
#1756=CARTESIAN_POINT('',(46.3806339739615,16.35,0.));
#1757=CARTESIAN_POINT('',(46.3806339739615,16.35,0.));
#1758=CARTESIAN_POINT('',(46.3806339739615,16.35,2.6));
#1759=CARTESIAN_POINT('',(46.3806339739615,16.35,2.6));
#1760=CARTESIAN_POINT('',(46.3806339739615,16.35,0.));
#1761=CARTESIAN_POINT('Origin',(46.3806339739615,37.85,0.));
#1762=CARTESIAN_POINT('',(46.3806339739615,37.85,0.));
#1763=CARTESIAN_POINT('',(46.3806339739615,37.85,2.6));
#1764=CARTESIAN_POINT('Origin',(71.3806339739615,27.1,2.6));
#1765=CARTESIAN_POINT('Origin',(71.3806339739615,27.1,0.));
#1766=CARTESIAN_POINT('',(0.,0.,0.));
#1767=CARTESIAN_POINT('Origin',(66.5,38.942719282327,27.6));
#1768=CARTESIAN_POINT('',(74.5,38.942719282327,27.6));
#1769=CARTESIAN_POINT('',(69.06,31.3633789416377,27.6));
#1770=CARTESIAN_POINT('Origin',(66.5,38.942719282327,27.6));
#1771=CARTESIAN_POINT('',(69.06,31.3633789416377,24.6));
#1772=CARTESIAN_POINT('',(69.06,31.3633789416377,27.6));
#1773=CARTESIAN_POINT('',(74.5,38.942719282327,24.6));
#1774=CARTESIAN_POINT('Origin',(66.5,38.942719282327,24.6));
#1775=CARTESIAN_POINT('',(74.5,38.942719282327,27.6));
#1776=CARTESIAN_POINT('Origin',(70.5,27.1,27.6));
#1777=CARTESIAN_POINT('',(69.06,22.8366210583623,27.6));
#1778=CARTESIAN_POINT('Origin',(70.5,27.1,27.6));
#1779=CARTESIAN_POINT('',(69.06,22.8366210583623,24.6));
#1780=CARTESIAN_POINT('',(69.06,22.8366210583623,27.6));
#1781=CARTESIAN_POINT('',(66.5,25.0384471871912,24.6));
#1782=CARTESIAN_POINT('Origin',(70.5,27.1,24.6));
#1783=CARTESIAN_POINT('',(66.5,29.1615528128088,24.6));
#1784=CARTESIAN_POINT('Origin',(70.5,27.1,24.6));
#1785=CARTESIAN_POINT('Origin',(70.5,27.1,24.6));
#1786=CARTESIAN_POINT('Origin',(66.5,54.2,27.6));
#1787=CARTESIAN_POINT('',(74.5,54.2,27.6));
#1788=CARTESIAN_POINT('',(74.5,6.03138548580071E-15,27.6));
#1789=CARTESIAN_POINT('',(57.5,54.2,27.6));
#1790=CARTESIAN_POINT('',(66.5,54.2,27.6));
#1791=CARTESIAN_POINT('',(57.5,6.66133814775094E-15,27.6));
#1792=CARTESIAN_POINT('',(57.5,6.58649699811329E-15,27.6));
#1793=CARTESIAN_POINT('',(74.5,6.66133814775094E-15,27.6));
#1794=CARTESIAN_POINT('',(66.5,6.03138548580071E-15,27.6));
#1795=CARTESIAN_POINT('',(74.5,15.257280717673,27.6));
#1796=CARTESIAN_POINT('',(74.5,6.03138548580071E-15,27.6));
#1797=CARTESIAN_POINT('Origin',(66.5,15.257280717673,27.6));
#1798=CARTESIAN_POINT('Origin',(66.5,15.257280717673,27.6));
#1799=CARTESIAN_POINT('',(74.5,15.257280717673,24.6));
#1800=CARTESIAN_POINT('',(74.5,15.257280717673,27.6));
#1801=CARTESIAN_POINT('Origin',(66.5,15.257280717673,24.6));
#1802=CARTESIAN_POINT('Origin',(70.5,27.1,24.6));
#1803=CARTESIAN_POINT('',(74.5,27.1,24.6));
#1804=CARTESIAN_POINT('',(66.5,34.975,24.6));
#1805=CARTESIAN_POINT('',(72.75,27.1,24.6));
#1806=CARTESIAN_POINT('Origin',(70.5,27.1,24.6));
#1807=CARTESIAN_POINT('Origin',(74.5,27.1,19.9));
#1808=CARTESIAN_POINT('',(74.5,4.44089209850063E-15,37.2));
#1809=CARTESIAN_POINT('',(74.5,4.8098335898363E-15,37.2));
#1810=CARTESIAN_POINT('',(74.5,-4.99999999999999,37.2));
#1811=CARTESIAN_POINT('',(74.5,-4.99999999999999,37.2));
#1812=CARTESIAN_POINT('',(74.5,-4.99999999999999,22.6));
#1813=CARTESIAN_POINT('',(74.5,-4.99999999999999,22.6));
#1814=CARTESIAN_POINT('',(74.5,11.35,22.6));
#1815=CARTESIAN_POINT('',(74.5,11.35,22.6));
#1816=CARTESIAN_POINT('',(74.5,16.35,17.6));
#1817=CARTESIAN_POINT('Origin',(74.5,11.35,17.6));
#1818=CARTESIAN_POINT('',(74.5,16.35,2.6));
#1819=CARTESIAN_POINT('',(74.5,16.35,17.6));
#1820=CARTESIAN_POINT('',(74.5,37.85,2.6));
#1821=CARTESIAN_POINT('',(74.5,16.35,2.6));
#1822=CARTESIAN_POINT('',(74.5,37.85,17.6));
#1823=CARTESIAN_POINT('',(74.5,37.85,2.6));
#1824=CARTESIAN_POINT('',(74.5,42.85,22.6));
#1825=CARTESIAN_POINT('Origin',(74.5,42.85,17.6));
#1826=CARTESIAN_POINT('',(74.5,59.2,22.6));
#1827=CARTESIAN_POINT('',(74.5,42.85,22.6));
#1828=CARTESIAN_POINT('',(74.5,59.2,37.2));
#1829=CARTESIAN_POINT('',(74.5,59.2,22.6));
#1830=CARTESIAN_POINT('',(74.5,54.2,37.2));
#1831=CARTESIAN_POINT('',(74.5,59.2,37.2));
#1832=CARTESIAN_POINT('',(74.5,54.2,27.6));
#1833=CARTESIAN_POINT('Origin',(70.5,27.1,27.6));
#1834=CARTESIAN_POINT('',(72.75,27.1,2.6));
#1835=CARTESIAN_POINT('',(72.75,27.1,27.6));
#1836=CARTESIAN_POINT('Origin',(70.5,27.1,2.6));
#1837=CARTESIAN_POINT('Origin',(59.5,58.2,26.25));
#1838=CARTESIAN_POINT('',(58.5,59.2,22.6));
#1839=CARTESIAN_POINT('',(58.5,59.2,37.2));
#1840=CARTESIAN_POINT('',(58.5,59.2,26.25));
#1841=CARTESIAN_POINT('',(60.5,57.2,37.2));
#1842=CARTESIAN_POINT('',(61.,56.7,37.2));
#1843=CARTESIAN_POINT('',(60.5,57.2,24.6));
#1844=CARTESIAN_POINT('',(60.5,57.2,21.25));
#1845=CARTESIAN_POINT('',(60.5,57.2,24.6));
#1846=CARTESIAN_POINT('Origin',(59.5,51.025,23.6));
#1847=CARTESIAN_POINT('',(58.5,-4.99999999999999,22.6));
#1848=CARTESIAN_POINT('',(58.5,51.025,22.6));
#1849=CARTESIAN_POINT('',(60.5,-2.99999999999999,24.6));
#1850=CARTESIAN_POINT('',(60.5,34.975,24.6));
#1851=CARTESIAN_POINT('',(60.5,-2.99999999999999,24.6));
#1852=CARTESIAN_POINT('Origin',(59.5,-3.99999999999999,33.55));
#1853=CARTESIAN_POINT('',(60.5,-2.99999999999999,37.2));
#1854=CARTESIAN_POINT('',(60.5,-2.99999999999999,28.55));
#1855=CARTESIAN_POINT('',(58.5,-4.99999999999999,37.2));
#1856=CARTESIAN_POINT('',(62.25,-1.24999999999999,37.2));
#1857=CARTESIAN_POINT('',(58.5,-4.99999999999999,33.55));
#1858=CARTESIAN_POINT('Origin',(66.5,-4.99999999999999,37.2));
#1859=CARTESIAN_POINT('',(57.5,-4.99999999999999,37.2));
#1860=CARTESIAN_POINT('',(66.5,-4.99999999999999,37.2));
#1861=CARTESIAN_POINT('',(57.5,-4.99999999999999,22.6));
#1862=CARTESIAN_POINT('',(57.5,-4.99999999999999,22.6));
#1863=CARTESIAN_POINT('',(66.5,-4.99999999999999,22.6));
#1864=CARTESIAN_POINT('Origin',(66.5,4.9960036108132E-15,37.2));
#1865=CARTESIAN_POINT('',(66.5,-2.99999999999999,37.2));
#1866=CARTESIAN_POINT('',(66.5,-2.99999999999999,37.2));
#1867=CARTESIAN_POINT('',(66.5,-4.99999999999999,37.2));
#1868=CARTESIAN_POINT('',(66.5,-2.49999999999999,37.2));
#1869=CARTESIAN_POINT('',(66.5,-4.99999999999999,37.2));
#1870=CARTESIAN_POINT('',(57.5,5.55111512312578E-15,37.2));
#1871=CARTESIAN_POINT('',(66.5,4.8098335898363E-15,37.2));
#1872=CARTESIAN_POINT('',(57.5,-4.99999999999999,37.2));
#1873=CARTESIAN_POINT('Origin',(66.5,59.2,22.6));
#1874=CARTESIAN_POINT('',(57.5,59.2,22.6));
#1875=CARTESIAN_POINT('',(66.5,59.2,22.6));
#1876=CARTESIAN_POINT('',(57.5,59.2,37.2));
#1877=CARTESIAN_POINT('',(57.5,59.2,22.6));
#1878=CARTESIAN_POINT('',(66.5,59.2,37.2));
#1879=CARTESIAN_POINT('Origin',(66.5,57.2,22.6));
#1880=CARTESIAN_POINT('',(66.5,57.2,24.6));
#1881=CARTESIAN_POINT('',(66.5,57.2,24.6));
#1882=CARTESIAN_POINT('',(66.5,57.2,37.2));
#1883=CARTESIAN_POINT('',(66.5,57.2,37.2));
#1884=CARTESIAN_POINT('',(66.5,57.2,21.25));
#1885=CARTESIAN_POINT('Origin',(66.5,42.85,22.6));
#1886=CARTESIAN_POINT('',(66.5,59.2,22.6));
#1887=CARTESIAN_POINT('',(66.5,42.85,22.6));
#1888=CARTESIAN_POINT('',(66.5,34.975,22.6));
#1889=CARTESIAN_POINT('',(66.5,59.2,22.6));
#1890=CARTESIAN_POINT('',(66.5,42.85,22.6));
#1891=CARTESIAN_POINT('Origin',(66.5,42.85,22.6));
#1892=CARTESIAN_POINT('',(57.5,42.85,22.6));
#1893=CARTESIAN_POINT('Origin',(66.5,42.85,22.6));
#1894=CARTESIAN_POINT('',(66.5,11.35,22.6));
#1895=CARTESIAN_POINT('',(66.5,-4.99999999999999,22.6));
#1896=CARTESIAN_POINT('',(66.5,34.975,22.6));
#1897=CARTESIAN_POINT('',(66.5,11.35,22.6));
#1898=CARTESIAN_POINT('',(66.5,-4.99999999999999,22.6));
#1899=CARTESIAN_POINT('Origin',(66.5,-4.99999999999999,37.2));
#1900=CARTESIAN_POINT('',(66.5,-4.99999999999999,28.55));
#1901=CARTESIAN_POINT('Origin',(57.5,27.1,29.9));
#1902=CARTESIAN_POINT('',(57.5,5.36494510214888E-15,37.2));
#1903=CARTESIAN_POINT('',(57.5,54.2,37.2));
#1904=CARTESIAN_POINT('',(57.5,54.2,27.6));
#1905=CARTESIAN_POINT('',(57.5,59.2,37.2));
#1906=CARTESIAN_POINT('Origin',(66.5,-2.99999999999999,37.2));
#1907=CARTESIAN_POINT('',(66.5,-2.99999999999999,24.6));
#1908=CARTESIAN_POINT('',(66.5,-2.99999999999999,28.55));
#1909=CARTESIAN_POINT('',(66.5,-2.99999999999999,24.6));
#1910=CARTESIAN_POINT('Origin',(66.5,6.03138548580071E-15,27.6));
#1911=CARTESIAN_POINT('Origin',(66.5,54.2,37.2));
#1912=CARTESIAN_POINT('',(66.5,54.2,37.2));
#1913=CARTESIAN_POINT('Origin',(66.5,59.2,37.2));
#1914=CARTESIAN_POINT('',(66.5,59.2,37.2));
#1915=CARTESIAN_POINT('',(66.5,59.2,37.2));
#1916=CARTESIAN_POINT('',(66.5,59.2,37.2));
#1917=CARTESIAN_POINT('Origin',(66.5,59.2,22.6));
#1918=CARTESIAN_POINT('',(66.5,59.2,21.25));
#1919=CARTESIAN_POINT('Origin',(66.5,42.85,24.6));
#1920=CARTESIAN_POINT('',(66.5,34.975,24.6));
#1921=CARTESIAN_POINT('',(66.5,34.975,24.6));
#1922=CARTESIAN_POINT('Origin',(66.5,42.85,17.6));
#1923=CARTESIAN_POINT('',(66.5,37.85,17.6));
#1924=CARTESIAN_POINT('Origin',(66.5,42.85,17.6));
#1925=CARTESIAN_POINT('',(66.5,37.85,17.6));
#1926=CARTESIAN_POINT('Origin',(66.5,37.85,2.6));
#1927=CARTESIAN_POINT('',(66.5,37.85,2.6));
#1928=CARTESIAN_POINT('',(66.5,37.85,2.6));
#1929=CARTESIAN_POINT('',(66.5,37.85,2.6));
#1930=CARTESIAN_POINT('Origin',(66.5,16.35,2.6));
#1931=CARTESIAN_POINT('',(66.5,16.35,2.6));
#1932=CARTESIAN_POINT('',(66.5,16.35,2.6));
#1933=CARTESIAN_POINT('',(66.5,16.35,2.6));
#1934=CARTESIAN_POINT('Origin',(66.5,16.35,17.6));
#1935=CARTESIAN_POINT('',(66.5,16.35,17.6));
#1936=CARTESIAN_POINT('',(66.5,16.35,17.6));
#1937=CARTESIAN_POINT('',(66.5,16.35,17.6));
#1938=CARTESIAN_POINT('Origin',(66.5,11.35,17.6));
#1939=CARTESIAN_POINT('Origin',(66.5,11.35,17.6));
#1940=CARTESIAN_POINT('Origin',(66.5,59.2,29.9));
#1941=CARTESIAN_POINT('',(0.,0.,0.));
#1942=CARTESIAN_POINT('Origin',(70.5,27.1,2.6));
#1943=CARTESIAN_POINT('',(73.15,27.1,1.6));
#1944=CARTESIAN_POINT('Origin',(70.5,27.1,1.6));
#1945=CARTESIAN_POINT('',(73.15,27.1,-4.));
#1946=CARTESIAN_POINT('',(73.15,27.1,2.6));
#1947=CARTESIAN_POINT('Origin',(70.5,27.1,-4.));
#1948=CARTESIAN_POINT('Origin',(66.5,19.35,-1.83697019872103E-16));
#1949=CARTESIAN_POINT('',(74.5,23.35,-4.));
#1950=CARTESIAN_POINT('',(74.5,19.35,-1.83697019872103E-16));
#1951=CARTESIAN_POINT('',(74.5,21.4625,-2.1125));
#1952=CARTESIAN_POINT('',(66.5,19.35,-1.83697019872103E-16));
#1953=CARTESIAN_POINT('',(66.5,19.35,-1.83697019872103E-16));
#1954=CARTESIAN_POINT('',(66.5,23.35,-4.));
#1955=CARTESIAN_POINT('',(66.5,19.35,-1.83697019872103E-16));
#1956=CARTESIAN_POINT('',(66.5,23.35,-4.));
#1957=CARTESIAN_POINT('Origin',(66.5,22.2,0.));
#1958=CARTESIAN_POINT('',(74.5,22.2,0.));
#1959=CARTESIAN_POINT('',(74.5,24.65,0.));
#1960=CARTESIAN_POINT('',(66.5,22.2,0.));
#1961=CARTESIAN_POINT('',(66.5,22.2,0.));
#1962=CARTESIAN_POINT('',(66.5,16.35,0.));
#1963=CARTESIAN_POINT('Origin',(66.5,22.2,2.6));
#1964=CARTESIAN_POINT('',(74.5,22.2,1.6));
#1965=CARTESIAN_POINT('',(74.5,22.2,0.950000000000003));
#1966=CARTESIAN_POINT('',(66.5,22.2,1.6));
#1967=CARTESIAN_POINT('',(66.5,22.2,1.6));
#1968=CARTESIAN_POINT('',(66.5,22.2,2.6));
#1969=CARTESIAN_POINT('Origin',(66.5,32.,1.6));
#1970=CARTESIAN_POINT('',(74.5,32.,1.6));
#1971=CARTESIAN_POINT('',(74.5,29.55,1.6));
#1972=CARTESIAN_POINT('',(66.5,32.,1.6));
#1973=CARTESIAN_POINT('',(66.5,32.,1.6));
#1974=CARTESIAN_POINT('',(66.5,29.55,1.6));
#1975=CARTESIAN_POINT('Origin',(66.5,32.,0.));
#1976=CARTESIAN_POINT('',(74.5,32.,0.));
#1977=CARTESIAN_POINT('',(74.5,32.,-0.349999999999996));
#1978=CARTESIAN_POINT('',(66.5,32.,0.));
#1979=CARTESIAN_POINT('',(66.5,32.,0.));
#1980=CARTESIAN_POINT('',(66.5,32.,2.6));
#1981=CARTESIAN_POINT('Origin',(66.5,34.85,0.));
#1982=CARTESIAN_POINT('',(74.5,34.85,3.88090918485098E-17));
#1983=CARTESIAN_POINT('',(74.5,30.975,0.));
#1984=CARTESIAN_POINT('',(66.5,34.85,3.88090918485098E-17));
#1985=CARTESIAN_POINT('',(66.5,34.85,3.88090918485098E-17));
#1986=CARTESIAN_POINT('',(66.5,16.35,0.));
#1987=CARTESIAN_POINT('Origin',(66.5,30.85,-4.));
#1988=CARTESIAN_POINT('',(74.5,30.85,-4.));
#1989=CARTESIAN_POINT('',(74.5,30.7375,-4.1125));
#1990=CARTESIAN_POINT('',(66.5,30.85,-4.));
#1991=CARTESIAN_POINT('',(66.5,30.85,-4.));
#1992=CARTESIAN_POINT('',(66.5,34.85,3.88090918485098E-17));
#1993=CARTESIAN_POINT('Origin',(66.5,23.35,-4.));
#1994=CARTESIAN_POINT('',(74.5,25.225,-4.));
#1995=CARTESIAN_POINT('',(66.5,37.85,-4.));
#1996=CARTESIAN_POINT('Origin',(66.5,27.1,-0.700000000000001));
#1997=CARTESIAN_POINT('Origin',(74.5,27.1,-0.700000000000001));
#1998=CARTESIAN_POINT('',(0.,0.,0.));
#1999=CARTESIAN_POINT('',(0.,0.,0.));
#2000=CARTESIAN_POINT('',(0.,0.,0.));
#2001=CARTESIAN_POINT('',(0.,0.,0.));
#2002=UNCERTAINTY_MEASURE_WITH_UNIT(LENGTH_MEASURE(0.01),#2014,
'DISTANCE_ACCURACY_VALUE',
'Maximum model space distance between geometric entities at asserted c
onnectivities');
#2003=UNCERTAINTY_MEASURE_WITH_UNIT(LENGTH_MEASURE(0.01),#2014,
'DISTANCE_ACCURACY_VALUE',
'Maximum model space distance between geometric entities at asserted c
onnectivities');
#2004=UNCERTAINTY_MEASURE_WITH_UNIT(LENGTH_MEASURE(0.01),#2014,
'DISTANCE_ACCURACY_VALUE',
'Maximum model space distance between geometric entities at asserted c
onnectivities');
#2005=UNCERTAINTY_MEASURE_WITH_UNIT(LENGTH_MEASURE(0.01),#2014,
'DISTANCE_ACCURACY_VALUE',
'Maximum model space distance between geometric entities at asserted c
onnectivities');
#2006=UNCERTAINTY_MEASURE_WITH_UNIT(LENGTH_MEASURE(0.01),#2014,
'DISTANCE_ACCURACY_VALUE',
'Maximum model space distance between geometric entities at asserted c
onnectivities');
#2007=UNCERTAINTY_MEASURE_WITH_UNIT(LENGTH_MEASURE(0.01),#2014,
'DISTANCE_ACCURACY_VALUE',
'Maximum model space distance between geometric entities at asserted c
onnectivities');
#2008=(
GEOMETRIC_REPRESENTATION_CONTEXT(3)
GLOBAL_UNCERTAINTY_ASSIGNED_CONTEXT((#2002))
GLOBAL_UNIT_ASSIGNED_CONTEXT((#2014,#2016,#2017))
REPRESENTATION_CONTEXT('','3D')
);
#2009=(
GEOMETRIC_REPRESENTATION_CONTEXT(3)
GLOBAL_UNCERTAINTY_ASSIGNED_CONTEXT((#2003))
GLOBAL_UNIT_ASSIGNED_CONTEXT((#2014,#2016,#2017))
REPRESENTATION_CONTEXT('','3D')
);
#2010=(
GEOMETRIC_REPRESENTATION_CONTEXT(3)
GLOBAL_UNCERTAINTY_ASSIGNED_CONTEXT((#2004))
GLOBAL_UNIT_ASSIGNED_CONTEXT((#2014,#2016,#2017))
REPRESENTATION_CONTEXT('','3D')
);
#2011=(
GEOMETRIC_REPRESENTATION_CONTEXT(3)
GLOBAL_UNCERTAINTY_ASSIGNED_CONTEXT((#2005))
GLOBAL_UNIT_ASSIGNED_CONTEXT((#2014,#2016,#2017))
REPRESENTATION_CONTEXT('','3D')
);
#2012=(
GEOMETRIC_REPRESENTATION_CONTEXT(3)
GLOBAL_UNCERTAINTY_ASSIGNED_CONTEXT((#2006))
GLOBAL_UNIT_ASSIGNED_CONTEXT((#2014,#2016,#2017))
REPRESENTATION_CONTEXT('','3D')
);
#2013=(
GEOMETRIC_REPRESENTATION_CONTEXT(3)
GLOBAL_UNCERTAINTY_ASSIGNED_CONTEXT((#2007))
GLOBAL_UNIT_ASSIGNED_CONTEXT((#2014,#2016,#2017))
REPRESENTATION_CONTEXT('','3D')
);
#2014=(
LENGTH_UNIT()
NAMED_UNIT(*)
SI_UNIT(.MILLI.,.METRE.)
);
#2015=(
LENGTH_UNIT()
NAMED_UNIT(*)
SI_UNIT($,.METRE.)
);
#2016=(
NAMED_UNIT(*)
PLANE_ANGLE_UNIT()
SI_UNIT($,.RADIAN.)
);
#2017=(
NAMED_UNIT(*)
SI_UNIT($,.STERADIAN.)
SOLID_ANGLE_UNIT()
);
#2018=SHAPE_DEFINITION_REPRESENTATION(#2023,#2032);
#2019=SHAPE_DEFINITION_REPRESENTATION(#2024,#2033);
#2020=SHAPE_DEFINITION_REPRESENTATION(#2025,#2034);
#2021=SHAPE_DEFINITION_REPRESENTATION(#2026,#2035);
#2022=SHAPE_DEFINITION_REPRESENTATION(#2027,#2036);
#2023=PRODUCT_DEFINITION_SHAPE('',$,#2038);
#2024=PRODUCT_DEFINITION_SHAPE('',$,#2039);
#2025=PRODUCT_DEFINITION_SHAPE('',$,#2040);
#2026=PRODUCT_DEFINITION_SHAPE('',$,#2041);
#2027=PRODUCT_DEFINITION_SHAPE('',$,#2042);
#2028=PRODUCT_DEFINITION_SHAPE($,$,#23);
#2029=PRODUCT_DEFINITION_SHAPE($,$,#24);
#2030=PRODUCT_DEFINITION_SHAPE($,$,#25);
#2031=PRODUCT_DEFINITION_SHAPE($,$,#26);
#2032=SHAPE_REPRESENTATION('',(#1248,#1335,#1336,#1337,#1338),#2008);
#2033=SHAPE_REPRESENTATION('',(#1249),#2009);
#2034=SHAPE_REPRESENTATION('',(#1256),#2010);
#2035=SHAPE_REPRESENTATION('',(#1275),#2011);
#2036=SHAPE_REPRESENTATION('',(#1321),#2012);
#2037=PRODUCT_DEFINITION_CONTEXT('part definition',#2054,'design');
#2038=PRODUCT_DEFINITION('Halterung Breadboard',
'Halterung Breadboard v3',#2043,#2037);
#2039=PRODUCT_DEFINITION('Breadborad','Breadborad',#2044,#2037);
#2040=PRODUCT_DEFINITION('Auto Befestigungspunkt',
'Auto Befestigungspunkt',#2045,#2037);
#2041=PRODUCT_DEFINITION('Breadboard_Halterung','Breadboard_Halterung',
#2046,#2037);
#2042=PRODUCT_DEFINITION('Halterung Konterplatte',
'Halterung Konterplatte',#2047,#2037);
#2043=PRODUCT_DEFINITION_FORMATION('',$,#2056);
#2044=PRODUCT_DEFINITION_FORMATION('',$,#2057);
#2045=PRODUCT_DEFINITION_FORMATION('',$,#2058);
#2046=PRODUCT_DEFINITION_FORMATION('',$,#2059);
#2047=PRODUCT_DEFINITION_FORMATION('',$,#2060);
#2048=PRODUCT_RELATED_PRODUCT_CATEGORY('Halterung Breadboard v3',
'Halterung Breadboard v3',(#2056));
#2049=PRODUCT_RELATED_PRODUCT_CATEGORY('Breadborad','Breadborad',(#2057));
#2050=PRODUCT_RELATED_PRODUCT_CATEGORY('Auto Befestigungspunkt',
'Auto Befestigungspunkt',(#2058));
#2051=PRODUCT_RELATED_PRODUCT_CATEGORY('Breadboard_Halterung',
'Breadboard_Halterung',(#2059));
#2052=PRODUCT_RELATED_PRODUCT_CATEGORY('Halterung Konterplatte',
'Halterung Konterplatte',(#2060));
#2053=APPLICATION_PROTOCOL_DEFINITION('international standard',
'automotive_design',2009,#2054);
#2054=APPLICATION_CONTEXT(
'Core Data for Automotive Mechanical Design Process');
#2055=PRODUCT_CONTEXT('part definition',#2054,'mechanical');
#2056=PRODUCT('Halterung Breadboard','Halterung Breadboard v3',$,(#2055));
#2057=PRODUCT('Breadborad','Breadborad',$,(#2055));
#2058=PRODUCT('Auto Befestigungspunkt','Auto Befestigungspunkt',$,(#2055));
#2059=PRODUCT('Breadboard_Halterung','Breadboard_Halterung',$,(#2055));
#2060=PRODUCT('Halterung Konterplatte','Halterung Konterplatte',$,(#2055));
#2061=PRESENTATION_STYLE_ASSIGNMENT((#2065));
#2062=PRESENTATION_STYLE_ASSIGNMENT((#2066));
#2063=PRESENTATION_STYLE_ASSIGNMENT((#2067));
#2064=PRESENTATION_STYLE_ASSIGNMENT((#2068));
#2065=SURFACE_STYLE_USAGE(.BOTH.,#2069);
#2066=SURFACE_STYLE_USAGE(.BOTH.,#2070);
#2067=SURFACE_STYLE_USAGE(.BOTH.,#2071);
#2068=SURFACE_STYLE_USAGE(.BOTH.,#2072);
#2069=SURFACE_SIDE_STYLE('',(#2073));
#2070=SURFACE_SIDE_STYLE('',(#2074));
#2071=SURFACE_SIDE_STYLE('',(#2075));
#2072=SURFACE_SIDE_STYLE('',(#2076));
#2073=SURFACE_STYLE_FILL_AREA(#2077);
#2074=SURFACE_STYLE_FILL_AREA(#2078);
#2075=SURFACE_STYLE_FILL_AREA(#2079);
#2076=SURFACE_STYLE_FILL_AREA(#2080);
#2077=FILL_AREA_STYLE('Stahl - satiniert',(#2081));
#2078=FILL_AREA_STYLE('Kunststoff - gl\X\E4nzend (Wei\X\DF)',(#2082));
#2079=FILL_AREA_STYLE('Aluminium - eloxiert, gl\X\E4nzend (Blau)',(#2083));
#2080=FILL_AREA_STYLE('Kunststoff - gl\X\E4nzend (Schwarz)',(#2084));
#2081=FILL_AREA_STYLE_COLOUR('Stahl - satiniert',#2085);
#2082=FILL_AREA_STYLE_COLOUR('Kunststoff - gl\X\E4nzend (Wei\X\DF)',#2086);
#2083=FILL_AREA_STYLE_COLOUR('Aluminium - eloxiert, gl\X\E4nzend (Blau
)',#2087);
#2084=FILL_AREA_STYLE_COLOUR('Kunststoff - gl\X\E4nzend (Schwarz)',#2088);
#2085=COLOUR_RGB('Stahl - satiniert',0.627450980392157,0.627450980392157,
0.627450980392157);
#2086=COLOUR_RGB('Kunststoff - gl\X\E4nzend (Wei\X\DF)',0.964705882352941,
0.964705882352941,0.952941176470588);
#2087=COLOUR_RGB('Aluminium - eloxiert, gl\X\E4nzend (Blau)',0.349019607843137,
0.584313725490196,0.854901960784314);
#2088=COLOUR_RGB('Kunststoff - gl\X\E4nzend (Schwarz)',0.0980392156862745,
0.0980392156862745,0.0980392156862745);
ENDSEC;
END-ISO-10303-21;
